<svg xmlns="http://www.w3.org/2000/svg" width="1280" height="932" viewBox="0 0 1280 932" font-family="Helvetica, Arial, sans-serif">
<rect x="0.0" y="0.0" width="1280.0" height="932.0" fill="#ffffff"/>
<text x="40.0" y="46.0" font-size="19" fill="#111" font-weight="bold">拍摄架设——箱子上方放什么、放多高</text>
<text x="40.0" y="70.0" font-size="12.5" fill="#777">NeoBox 是用于翻拍（相机扫描）135 与 120 胶片的闪光灯光源箱。箱子把胶片平面固定在桌面以上约 120.3 mm；这条线以上是你的相机、你的镜头，以及一个只有你能给出的尺寸。</text>
<line x1="40.0" y1="94.0" x2="1240.0" y2="94.0" stroke="#ececec" stroke-width="1.0"/>
<rect x="40.0" y="112.0" width="600.0" height="668.0" fill="none" stroke="#e5e5e5" stroke-width="1" rx="5"/>
<text x="58.0" y="138.0" font-size="13.5" fill="#111" font-weight="bold">A — 整套装置立面图，按比例绘制</text>
<line x1="104.0" y1="613.1" x2="628.0" y2="613.1" stroke="#b9bec6" stroke-width="2.4"/>
<line x1="106.0" y1="615.1" x2="113.0" y2="622.1" stroke="#c9ced6" stroke-width="1.2"/>
<line x1="118.0" y1="615.1" x2="125.0" y2="622.1" stroke="#c9ced6" stroke-width="1.2"/>
<line x1="130.0" y1="615.1" x2="137.0" y2="622.1" stroke="#c9ced6" stroke-width="1.2"/>
<line x1="142.0" y1="615.1" x2="149.0" y2="622.1" stroke="#c9ced6" stroke-width="1.2"/>
<line x1="154.0" y1="615.1" x2="161.0" y2="622.1" stroke="#c9ced6" stroke-width="1.2"/>
<line x1="166.0" y1="615.1" x2="173.0" y2="622.1" stroke="#c9ced6" stroke-width="1.2"/>
<line x1="178.0" y1="615.1" x2="185.0" y2="622.1" stroke="#c9ced6" stroke-width="1.2"/>
<line x1="190.0" y1="615.1" x2="197.0" y2="622.1" stroke="#c9ced6" stroke-width="1.2"/>
<line x1="202.0" y1="615.1" x2="209.0" y2="622.1" stroke="#c9ced6" stroke-width="1.2"/>
<line x1="214.0" y1="615.1" x2="221.0" y2="622.1" stroke="#c9ced6" stroke-width="1.2"/>
<line x1="226.0" y1="615.1" x2="233.0" y2="622.1" stroke="#c9ced6" stroke-width="1.2"/>
<line x1="238.0" y1="615.1" x2="245.0" y2="622.1" stroke="#c9ced6" stroke-width="1.2"/>
<line x1="250.0" y1="615.1" x2="257.0" y2="622.1" stroke="#c9ced6" stroke-width="1.2"/>
<line x1="262.0" y1="615.1" x2="269.0" y2="622.1" stroke="#c9ced6" stroke-width="1.2"/>
<line x1="274.0" y1="615.1" x2="281.0" y2="622.1" stroke="#c9ced6" stroke-width="1.2"/>
<line x1="286.0" y1="615.1" x2="293.0" y2="622.1" stroke="#c9ced6" stroke-width="1.2"/>
<line x1="298.0" y1="615.1" x2="305.0" y2="622.1" stroke="#c9ced6" stroke-width="1.2"/>
<line x1="310.0" y1="615.1" x2="317.0" y2="622.1" stroke="#c9ced6" stroke-width="1.2"/>
<line x1="322.0" y1="615.1" x2="329.0" y2="622.1" stroke="#c9ced6" stroke-width="1.2"/>
<line x1="334.0" y1="615.1" x2="341.0" y2="622.1" stroke="#c9ced6" stroke-width="1.2"/>
<line x1="346.0" y1="615.1" x2="353.0" y2="622.1" stroke="#c9ced6" stroke-width="1.2"/>
<line x1="358.0" y1="615.1" x2="365.0" y2="622.1" stroke="#c9ced6" stroke-width="1.2"/>
<line x1="370.0" y1="615.1" x2="377.0" y2="622.1" stroke="#c9ced6" stroke-width="1.2"/>
<line x1="382.0" y1="615.1" x2="389.0" y2="622.1" stroke="#c9ced6" stroke-width="1.2"/>
<line x1="394.0" y1="615.1" x2="401.0" y2="622.1" stroke="#c9ced6" stroke-width="1.2"/>
<line x1="406.0" y1="615.1" x2="413.0" y2="622.1" stroke="#c9ced6" stroke-width="1.2"/>
<line x1="418.0" y1="615.1" x2="425.0" y2="622.1" stroke="#c9ced6" stroke-width="1.2"/>
<line x1="430.0" y1="615.1" x2="437.0" y2="622.1" stroke="#c9ced6" stroke-width="1.2"/>
<line x1="442.0" y1="615.1" x2="449.0" y2="622.1" stroke="#c9ced6" stroke-width="1.2"/>
<line x1="454.0" y1="615.1" x2="461.0" y2="622.1" stroke="#c9ced6" stroke-width="1.2"/>
<line x1="466.0" y1="615.1" x2="473.0" y2="622.1" stroke="#c9ced6" stroke-width="1.2"/>
<line x1="478.0" y1="615.1" x2="485.0" y2="622.1" stroke="#c9ced6" stroke-width="1.2"/>
<line x1="490.0" y1="615.1" x2="497.0" y2="622.1" stroke="#c9ced6" stroke-width="1.2"/>
<line x1="502.0" y1="615.1" x2="509.0" y2="622.1" stroke="#c9ced6" stroke-width="1.2"/>
<line x1="514.0" y1="615.1" x2="521.0" y2="622.1" stroke="#c9ced6" stroke-width="1.2"/>
<line x1="526.0" y1="615.1" x2="533.0" y2="622.1" stroke="#c9ced6" stroke-width="1.2"/>
<line x1="538.0" y1="615.1" x2="545.0" y2="622.1" stroke="#c9ced6" stroke-width="1.2"/>
<line x1="550.0" y1="615.1" x2="557.0" y2="622.1" stroke="#c9ced6" stroke-width="1.2"/>
<line x1="562.0" y1="615.1" x2="569.0" y2="622.1" stroke="#c9ced6" stroke-width="1.2"/>
<line x1="574.0" y1="615.1" x2="581.0" y2="622.1" stroke="#c9ced6" stroke-width="1.2"/>
<line x1="586.0" y1="615.1" x2="593.0" y2="622.1" stroke="#c9ced6" stroke-width="1.2"/>
<line x1="598.0" y1="615.1" x2="605.0" y2="622.1" stroke="#c9ced6" stroke-width="1.2"/>
<line x1="610.0" y1="615.1" x2="617.0" y2="622.1" stroke="#c9ced6" stroke-width="1.2"/>
<line x1="622.0" y1="615.1" x2="629.0" y2="622.1" stroke="#c9ced6" stroke-width="1.2"/>
<text x="626.0" y="606.1" font-size="11.2" fill="#6b7280" text-anchor="end">桌面</text>
<polygon points="270.6,486.8 329.4,486.8 334.6,350.6 265.4,350.6" fill="#e8a33d" opacity="0.13"/>
<rect x="190.8" y="516.5" width="218.4" height="96.6" fill="#f4f4f4" stroke="#5c6470" stroke-width="1.1"/>
<rect x="195.0" y="529.1" width="210.0" height="81.9" fill="#e9ecef" stroke="#aeb5bd" stroke-width="1.0"/>
<rect x="285.3" y="596.3" width="29.4" height="10.5" fill="#dfe3e8" stroke="#aeb5bd" stroke-width="1.0" rx="2"/>
<text x="199.2" y="539.6" font-size="11.2" fill="#4b5563">抽口盖板 · 200 × 78</text>
<text x="300.0" y="553.5" font-size="11.2" fill="#4b5563" text-anchor="middle">NeoBox — 宽 208 · 高 96</text>
<text x="300.0" y="567.5" font-size="10.6" fill="#4b5563" text-anchor="middle">内部闪光灯朝远端墙面横向发光；光从</text>
<text x="300.0" y="579.8" font-size="10.6" fill="#4b5563" text-anchor="middle">100 × 120 开口向上，从下方照亮胶片。</text>
<rect x="187.3" y="512.3" width="225.3" height="14.7" fill="#dfe3e8" stroke="#5c6470" stroke-width="1.1"/>
<line x1="187.3" y1="516.5" x2="412.7" y2="516.5" stroke="#5c6470" stroke-width="0.7" opacity="0.55"/>
<rect x="223.3" y="512.3" width="6.3" height="10.5" fill="#9aa2ad" stroke="#6c7480" stroke-width="0.7" opacity="0.4"/>
<rect x="223.3" y="487.1" width="6.3" height="25.2" fill="#9aa2ad" stroke="#6c7480" stroke-width="0.7"/>
<rect x="220.7" y="498.7" width="11.6" height="4.2" fill="#7d8794" stroke="#5a626d" stroke-width="0.7"/>
<rect x="220.7" y="489.2" width="11.6" height="4.2" fill="#7d8794" stroke="#5a626d" stroke-width="0.7"/>
<rect x="344.1" y="512.3" width="6.3" height="10.5" fill="#9aa2ad" stroke="#6c7480" stroke-width="0.7" opacity="0.4"/>
<rect x="344.1" y="487.1" width="6.3" height="25.2" fill="#9aa2ad" stroke="#6c7480" stroke-width="0.7"/>
<rect x="341.5" y="498.7" width="11.6" height="4.2" fill="#7d8794" stroke="#5a626d" stroke-width="0.7"/>
<rect x="341.5" y="489.2" width="11.6" height="4.2" fill="#7d8794" stroke="#5a626d" stroke-width="0.7"/>
<rect x="370.4" y="512.3" width="6.3" height="10.5" fill="#9aa2ad" stroke="#6c7480" stroke-width="0.7" opacity="0.4"/>
<rect x="370.4" y="487.1" width="6.3" height="25.2" fill="#9aa2ad" stroke="#6c7480" stroke-width="0.7"/>
<rect x="367.7" y="498.7" width="11.6" height="4.2" fill="#7d8794" stroke="#5a626d" stroke-width="0.7"/>
<rect x="367.7" y="489.2" width="11.6" height="4.2" fill="#7d8794" stroke="#5a626d" stroke-width="0.7"/>
<rect x="195.0" y="493.4" width="210.0" height="5.2" fill="#3c424c" stroke="#23272e" stroke-width="1.0"/>
<rect x="242.2" y="491.3" width="115.5" height="2.1" fill="#ffe9a8" stroke="#8a7a3f" stroke-width="0.9"/>
<rect x="242.2" y="486.1" width="115.5" height="5.2" fill="#2f3238" stroke="#1b1e22" stroke-width="1.0"/>
<rect x="242.2" y="482.9" width="115.5" height="3.2" fill="#4d5563" stroke="#2b3038" stroke-width="1.0"/>
<line x1="239.1" y1="486.8" x2="360.9" y2="486.8" stroke="#ff9f43" stroke-width="2.4"/>
<line x1="360.9" y1="486.8" x2="434.0" y2="486.8" stroke="#e8a33d" stroke-width="0.9" stroke-dasharray="5 4"/>
<line x1="239.1" y1="486.8" x2="216.0" y2="486.8" stroke="#e8a33d" stroke-width="0.9" stroke-dasharray="5 4"/>
<text x="214.0" y="470.8" font-size="10.5" fill="#b97511" text-anchor="end" font-weight="bold">胶片平面</text>
<text x="214.0" y="482.8" font-size="10.5" fill="#b97511" text-anchor="end">z ≈ 120.3</text>
<rect x="111.0" y="604.7" width="68.2" height="8.4" fill="#4d5563" stroke="#2b3038" stroke-width="1.0" rx="2"/>
<rect x="121.5" y="151.1" width="21.0" height="453.6" fill="#4d5563" stroke="#2b3038" stroke-width="1.0"/>
<line x1="121.5" y1="571.1" x2="142.5" y2="571.1" stroke="#39404b" stroke-width="0.8"/>
<line x1="121.5" y1="529.1" x2="142.5" y2="529.1" stroke="#39404b" stroke-width="0.8"/>
<line x1="121.5" y1="487.1" x2="142.5" y2="487.1" stroke="#39404b" stroke-width="0.8"/>
<line x1="121.5" y1="445.1" x2="142.5" y2="445.1" stroke="#39404b" stroke-width="0.8"/>
<line x1="121.5" y1="403.1" x2="142.5" y2="403.1" stroke="#39404b" stroke-width="0.8"/>
<line x1="121.5" y1="361.1" x2="142.5" y2="361.1" stroke="#39404b" stroke-width="0.8"/>
<line x1="121.5" y1="319.1" x2="142.5" y2="319.1" stroke="#39404b" stroke-width="0.8"/>
<line x1="121.5" y1="277.1" x2="142.5" y2="277.1" stroke="#39404b" stroke-width="0.8"/>
<line x1="121.5" y1="235.1" x2="142.5" y2="235.1" stroke="#39404b" stroke-width="0.8"/>
<line x1="121.5" y1="193.1" x2="142.5" y2="193.1" stroke="#39404b" stroke-width="0.8"/>
<rect x="113.1" y="237.2" width="29.4" height="37.8" fill="#3c424c" stroke="#23272e" stroke-width="1.0" rx="2"/>
<rect x="137.2" y="245.6" width="91.4" height="21.0" fill="#4d5563" stroke="#2b3038" stroke-width="1.0"/>
<rect x="228.6" y="195.2" width="142.8" height="90.3" fill="#4d5563" stroke="#2b3038" stroke-width="1.1" rx="3"/>
<rect x="283.2" y="178.4" width="33.6" height="16.8" fill="#3c424c" stroke="#23272e" stroke-width="1.0" rx="2"/>
<rect x="321.0" y="174.2" width="27.3" height="21.0" fill="#9aa2ad" stroke="#6c7480" stroke-width="1.0" rx="2"/>
<text x="352.5" y="180.5" font-size="11.2" fill="#6b7280">触发器发射端</text>
<line x1="339.9" y1="184.7" x2="350.4" y2="182.6" stroke="#c9ced6" stroke-width="0.9"/>
<rect x="265.4" y="285.5" width="69.3" height="65.1" fill="#3c424c" stroke="#23272e" stroke-width="1.1"/>
<rect x="263.2" y="306.5" width="73.5" height="12.6" fill="#5a6371" stroke="#23272e" stroke-width="0.9"/>
<rect x="271.6" y="347.4" width="56.7" height="3.2" fill="#1b1e22"/>
<line x1="224.4" y1="250.9" x2="375.6" y2="250.9" stroke="#aab1bb" stroke-width="1.0" stroke-dasharray="5 4"/>
<text x="381.9" y="254.4" font-size="11.2" fill="#6b7280">传感器平面</text>
<circle cx="357.8" cy="484.5" r="2" fill="#9aa0a8"/>
<line x1="357.8" y1="484.5" x2="450.0" y2="465.8" stroke="#c9ced6" stroke-width="0.9"/>
<circle cx="357.8" cy="492.4" r="2" fill="#9aa0a8"/>
<line x1="357.8" y1="492.4" x2="395.4" y2="487.7" stroke="#c9ced6" stroke-width="0.9"/>
<line x1="409.4" y1="485.9" x2="450.0" y2="480.8" stroke="#c9ced6" stroke-width="0.9"/>
<circle cx="405.0" cy="496.0" r="2" fill="#9aa0a8"/>
<line x1="405.0" y1="496.0" x2="450.0" y2="495.8" stroke="#c9ced6" stroke-width="0.9"/>
<circle cx="379.3" cy="501.8" r="2" fill="#9aa0a8"/>
<line x1="379.3" y1="501.8" x2="450.0" y2="510.8" stroke="#c9ced6" stroke-width="0.9"/>
<circle cx="412.7" cy="519.6" r="2" fill="#9aa0a8"/>
<line x1="412.7" y1="519.6" x2="450.0" y2="525.8" stroke="#c9ced6" stroke-width="0.9"/>
<line x1="415.0" y1="613.1" x2="446.0" y2="613.1" stroke="#c9ced6" stroke-width="0.9"/>
<line x1="415.0" y1="486.8" x2="446.0" y2="486.8" stroke="#c9ced6" stroke-width="0.9"/>
<line x1="415.0" y1="350.6" x2="446.0" y2="350.6" stroke="#c9ced6" stroke-width="0.9"/>
<line x1="440.0" y1="493.8" x2="440.0" y2="606.1" stroke="#b97511" stroke-width="1.0"/>
<polygon points="440.0,486.8 437.0,494.8 443.0,494.8" fill="#b97511"/>
<polygon points="440.0,613.1 437.0,605.1 443.0,605.1" fill="#b97511"/>
<line x1="440.0" y1="357.6" x2="440.0" y2="479.8" stroke="#b97511" stroke-width="1.0"/>
<polygon points="440.0,350.6 437.0,358.6 443.0,358.6" fill="#b97511"/>
<polygon points="440.0,486.8 437.0,478.8 443.0,478.8" fill="#b97511"/>
<text x="456.0" y="545.9" font-size="11.8" fill="#b97511" font-weight="bold">≈ 120.3 mm</text>
<text x="456.0" y="560.9" font-size="11.2" fill="#555">桌面到胶片平面，由箱子决定。</text>
<text x="456.0" y="407.2" font-size="11.8" fill="#b97511" font-weight="bold">看你的镜头</text>
<text x="456.0" y="422.2" font-size="11.2" fill="#555">镜头工作距离——本</text>
<text x="456.0" y="437.2" font-size="11.2" fill="#555">图唯一给不出的尺寸。</text>
<text x="456.0" y="469.4" font-size="10.5" fill="#555">胶片夹——底座 + 上盖</text>
<text x="456.0" y="484.4" font-size="10.5" fill="#555">乳白扩散板</text>
<text x="456.0" y="499.4" font-size="10.5" fill="#555">胶片台 · 开口 100 × 120</text>
<text x="456.0" y="514.4" font-size="10.5" fill="#555">M6 螺杆 + 上下螺母（3 组）</text>
<text x="456.0" y="529.4" font-size="10.5" fill="#555">顶盖</text>
<line x1="92.0" y1="613.1" x2="108.0" y2="613.1" stroke="#c9ced6" stroke-width="0.9"/>
<line x1="92.0" y1="350.6" x2="117.0" y2="350.6" stroke="#c9ced6" stroke-width="0.9"/>
<line x1="147.0" y1="350.6" x2="264.3" y2="350.6" stroke="#d8dde3" stroke-width="0.9" stroke-dasharray="4 4"/>
<line x1="92.0" y1="357.6" x2="92.0" y2="606.1" stroke="#b97511" stroke-width="1.0"/>
<polygon points="92.0,350.6 89.0,358.6 95.0,358.6" fill="#b97511"/>
<polygon points="92.0,613.1 89.0,605.1 95.0,605.1" fill="#b97511"/>
<text x="0" y="0" transform="translate(84.0,481.9) rotate(-90)" font-size="10.5" fill="#b97511" text-anchor="middle">桌面 → 镜头前端 ≈ 120.3 + 工作距离</text>
<rect x="456.0" y="206.0" width="176.0" height="92.0" fill="#fdf7ec" stroke="#f0dcb8" stroke-width="1.0" rx="3"/>
<rect x="456.0" y="206.0" width="2.5" height="92.0" fill="#e8a33d"/>
<text x="468.0" y="224.0" font-size="11.6" fill="#b97511" font-weight="bold">要的是平行，不是对着</text>
<text x="468.0" y="242.0" font-size="11.2" fill="#8d6a25">把镜头对着画面中心，和与</text>
<text x="468.0" y="256.5" font-size="11.2" fill="#8d6a25">画面平行，是两回事。传感</text>
<text x="468.0" y="271.0" font-size="11.2" fill="#8d6a25">器必须与胶片平面平行，否</text>
<text x="468.0" y="285.5" font-size="11.2" fill="#8d6a25">则画面一边实、另一边虚。</text>
<line x1="117.0" y1="203.6" x2="121.5" y2="203.6" stroke="#c9ced6" stroke-width="0.9"/>
<circle cx="121.5" cy="203.6" r="2" fill="#c9ced6"/>
<circle cx="108.0" cy="203.6" r="8.0" fill="#ffffff" stroke="#e8a33d" stroke-width="1.5"/>
<text x="108.0" y="207.7" font-size="11.6" fill="#b97511" text-anchor="middle" font-weight="bold">1</text>
<line x1="369.0" y1="319.1" x2="335.7" y2="319.1" stroke="#c9ced6" stroke-width="0.9"/>
<circle cx="335.7" cy="319.1" r="2" fill="#c9ced6"/>
<circle cx="378.0" cy="319.1" r="8.0" fill="#ffffff" stroke="#e8a33d" stroke-width="1.5"/>
<text x="378.0" y="323.2" font-size="11.6" fill="#b97511" text-anchor="middle" font-weight="bold">2</text>
<line x1="237.0" y1="466.1" x2="249.6" y2="486.8" stroke="#c9ced6" stroke-width="0.9"/>
<circle cx="249.6" cy="486.8" r="2" fill="#c9ced6"/>
<circle cx="228.0" cy="466.1" r="8.0" fill="#ffffff" stroke="#e8a33d" stroke-width="1.5"/>
<text x="228.0" y="470.2" font-size="11.6" fill="#b97511" text-anchor="middle" font-weight="bold">3</text>
<circle cx="324.1" cy="403.1" r="8.0" fill="#ffffff" stroke="#e8a33d" stroke-width="1.5"/>
<text x="324.1" y="407.2" font-size="11.6" fill="#b97511" text-anchor="middle" font-weight="bold">4</text>
<line x1="215.0" y1="219.4" x2="228.6" y2="219.4" stroke="#c9ced6" stroke-width="0.9"/>
<circle cx="228.6" cy="219.4" r="2" fill="#c9ced6"/>
<circle cx="206.0" cy="219.4" r="8.0" fill="#ffffff" stroke="#e8a33d" stroke-width="1.5"/>
<text x="206.0" y="223.5" font-size="11.6" fill="#b97511" text-anchor="middle" font-weight="bold">5</text>
<circle cx="65.0" cy="667.2" r="7.5" fill="#ffffff" stroke="#e8a33d" stroke-width="1.5"/>
<text x="65.0" y="671.4" font-size="11.6" fill="#b97511" text-anchor="middle" font-weight="bold">1</text>
<text x="80.0" y="671.2" font-size="11.6" fill="#555">翻拍台，或带横臂／可倒置中轴的三脚架。相机必须垂直向下。</text>
<circle cx="65.0" cy="687.8" r="7.5" fill="#ffffff" stroke="#e8a33d" stroke-width="1.5"/>
<text x="65.0" y="691.9" font-size="11.6" fill="#b97511" text-anchor="middle" font-weight="bold">2</text>
<text x="80.0" y="691.8" font-size="11.6" fill="#555">微距镜头。工作距离是镜头的属性，不是箱子的——量一次，在立柱上做好这支镜头的高度标记。</text>
<circle cx="65.0" cy="708.2" r="7.5" fill="#ffffff" stroke="#e8a33d" stroke-width="1.5"/>
<text x="65.0" y="712.4" font-size="11.6" fill="#b97511" text-anchor="middle" font-weight="bold">3</text>
<text x="80.0" y="712.2" font-size="11.6" fill="#555">胶片平面，桌面以上约 120.3 mm，固定不变。换画幅时它不动。</text>
<circle cx="65.0" cy="728.8" r="7.5" fill="#ffffff" stroke="#e8a33d" stroke-width="1.5"/>
<text x="65.0" y="732.9" font-size="11.6" fill="#b97511" text-anchor="middle" font-weight="bold">4</text>
<text x="80.0" y="732.8" font-size="11.6" fill="#555">从胶片伸向镜头的成像光锥。手臂、线缆、手都不要伸进去。</text>
<circle cx="65.0" cy="749.2" r="7.5" fill="#ffffff" stroke="#e8a33d" stroke-width="1.5"/>
<text x="65.0" y="753.4" font-size="11.6" fill="#b97511" text-anchor="middle" font-weight="bold">5</text>
<text x="80.0" y="753.2" font-size="11.6" fill="#555">要平行，不只是对准——见右侧提示，并用面板 B 的镜子法检验。</text>
<rect x="660.0" y="112.0" width="580.0" height="298.0" fill="none" stroke="#e5e5e5" stroke-width="1" rx="5"/>
<text x="676.0" y="138.0" font-size="13.5" fill="#111" font-weight="bold">B — 镜子法：真的平行，还是只是对着？</text>
<circle cx="686.0" cy="162.0" r="8.0" fill="#ffffff" stroke="#e8a33d" stroke-width="1.5"/>
<text x="686.0" y="166.1" font-size="11.6" fill="#b97511" text-anchor="middle" font-weight="bold">1</text>
<rect x="734.0" y="176.0" width="60.0" height="18.0" fill="#4d5563" stroke="#2b3038" stroke-width="1.0" rx="2"/>
<rect x="750.0" y="194.0" width="28.0" height="14.0" fill="#3c424c" stroke="#23272e" stroke-width="1.0"/>
<line x1="764.0" y1="209.0" x2="764.0" y2="231.0" stroke="#c9ced6" stroke-width="0.9" stroke-dasharray="4 3"/>
<rect x="738.0" y="232.0" width="52.0" height="8.0" fill="#eef1f4" stroke="#5c6470" stroke-width="1.0"/>
<line x1="744.0" y1="239.0" x2="750.0" y2="233.0" stroke="#c3c9d1" stroke-width="0.9"/>
<line x1="756.0" y1="239.0" x2="762.0" y2="233.0" stroke="#c3c9d1" stroke-width="0.9"/>
<line x1="768.0" y1="239.0" x2="774.0" y2="233.0" stroke="#c3c9d1" stroke-width="0.9"/>
<line x1="780.0" y1="239.0" x2="786.0" y2="233.0" stroke="#c3c9d1" stroke-width="0.9"/>
<rect x="716.0" y="240.0" width="96.0" height="12.0" fill="#2f3238" stroke="#1b1e22" stroke-width="1.0"/>
<line x1="710.0" y1="240.0" x2="818.0" y2="240.0" stroke="#ff9f43" stroke-width="2.2"/>
<rect x="720.0" y="252.0" width="88.0" height="6.0" fill="#ffe9a8" stroke="#8a7a3f" stroke-width="0.9"/>
<rect x="690.0" y="258.0" width="148.0" height="8.0" fill="#3c424c" stroke="#23272e" stroke-width="1.0"/>
<rect x="682.0" y="266.0" width="164.0" height="12.0" fill="#f4f4f4" stroke="#5c6470" stroke-width="1.0"/>
<text x="795.0" y="229.0" font-size="11.2" fill="#6b7280">镜子</text>
<text x="676.0" y="300.0" font-size="11.2" fill="#555">把一面约 30 mm 的小平面镜</text>
<text x="676.0" y="315.0" font-size="11.2" fill="#555">放在夹子上面的胶片平面上。</text>
<circle cx="872.0" cy="162.0" r="8.0" fill="#ffffff" stroke="#e8a33d" stroke-width="1.5"/>
<text x="872.0" y="166.1" font-size="11.6" fill="#b97511" text-anchor="middle" font-weight="bold">2</text>
<text x="886.0" y="166.5" font-size="10.5" fill="#c07f1b" font-weight="bold">× 不平行</text>
<rect x="882.0" y="182.0" width="136.0" height="91.0" fill="#f4f6f8" stroke="#5c6470" stroke-width="1.1" rx="2"/>
<line x1="886.0" y1="227.5" x2="1014.0" y2="227.5" stroke="#c9ced6" stroke-width="0.9" stroke-dasharray="5 4"/>
<line x1="950.0" y1="186.0" x2="950.0" y2="269.0" stroke="#c9ced6" stroke-width="0.9" stroke-dasharray="5 4"/>
<rect x="887.0" y="192.5" width="62.0" height="32.0" fill="#dfe3e8" stroke="#9aa2ad" stroke-width="1.0" rx="2"/>
<circle cx="918.0" cy="208.5" r="13" fill="#3c424c" stroke="#23272e"/>
<circle cx="918.0" cy="208.5" r="6" fill="#1b1e22"/>
<line x1="932.0" y1="217.5" x2="938.4" y2="220.9" stroke="#e8901f" stroke-width="1.6"/>
<polygon points="945.0,224.5 937.0,223.6 939.8,218.3" fill="#e8901f"/>
<text x="862.0" y="300.0" font-size="11.2" fill="#555">在实时取景里能看到镜头和相机的</text>
<text x="862.0" y="315.0" font-size="11.2" fill="#555">倒影。偏离中心，说明相机是歪的。</text>
<circle cx="1058.0" cy="162.0" r="8.0" fill="#ffffff" stroke="#e8a33d" stroke-width="1.5"/>
<text x="1058.0" y="166.1" font-size="11.6" fill="#b97511" text-anchor="middle" font-weight="bold">3</text>
<text x="1072.0" y="166.5" font-size="10.5" fill="#3f9268" font-weight="bold">✓ 平行</text>
<rect x="1068.0" y="182.0" width="136.0" height="91.0" fill="#f4f6f8" stroke="#5c6470" stroke-width="1.1" rx="2"/>
<line x1="1072.0" y1="227.5" x2="1200.0" y2="227.5" stroke="#c9ced6" stroke-width="0.9" stroke-dasharray="5 4"/>
<line x1="1136.0" y1="186.0" x2="1136.0" y2="269.0" stroke="#c9ced6" stroke-width="0.9" stroke-dasharray="5 4"/>
<rect x="1105.0" y="211.5" width="62.0" height="32.0" fill="#dfe3e8" stroke="#9aa2ad" stroke-width="1.0" rx="2"/>
<circle cx="1136.0" cy="227.5" r="13" fill="#3c424c" stroke="#23272e"/>
<circle cx="1136.0" cy="227.5" r="6" fill="#1b1e22"/>
<text x="1048.0" y="300.0" font-size="11.2" fill="#555">移动相机，直到倒影正好</text>
<text x="1048.0" y="315.0" font-size="11.2" fill="#555">居中且左右对称。此时传</text>
<text x="1048.0" y="330.0" font-size="11.2" fill="#555">感器与胶片平面平行。</text>
<text x="676.0" y="360.0" font-size="11.5" fill="#6b7280">然后微调胶片台的三颗螺母——前螺母管俯仰，后面两颗管横滚——再复</text>
<text x="676.0" y="377.0" font-size="11.5" fill="#6b7280">查一遍。先平行，后均匀：闪光能冻结振动，却救不了歪掉的胶片平面。</text>
<rect x="660.0" y="426.0" width="580.0" height="354.0" fill="none" stroke="#e5e5e5" stroke-width="1" rx="5"/>
<text x="676.0" y="452.0" font-size="13.5" fill="#111" font-weight="bold">C — 让画幅填满传感器所需的放大倍率</text>
<text x="1224.0" y="452.0" font-size="11" fill="#6b7280" text-anchor="end">近似值——用来选镜头</text>
<rect x="676.0" y="472.0" width="548.0" height="34.0" fill="#f4f6f8"/>
<text x="686.0" y="487.0" font-size="11.2" fill="#444" font-weight="bold">画幅</text>
<text x="796.0" y="487.0" font-size="11.2" fill="#444" font-weight="bold">画面尺寸 (mm)</text>
<text x="926.0" y="487.0" font-size="11.2" fill="#444" font-weight="bold">全画幅</text>
<text x="926.0" y="500.0" font-size="11.2" fill="#6b7280">36 × 24</text>
<text x="1080.0" y="487.0" font-size="11.2" fill="#444" font-weight="bold">APS-C</text>
<text x="1080.0" y="500.0" font-size="11.2" fill="#6b7280">23.5 × 15.6</text>
<line x1="676.0" y1="506.0" x2="1224.0" y2="506.0" stroke="#c9ced6" stroke-width="1.0"/>
<text x="686.0" y="524.0" font-size="11.8" fill="#222" font-weight="bold">135</text>
<text x="796.0" y="524.0" font-size="11.5" fill="#555">36 × 24</text>
<text x="926.0" y="524.0" font-size="11.5" fill="#333">1.0× — 1:1 微距镜头</text>
<text x="1080.0" y="524.0" font-size="11.5" fill="#333">≈ 0.65×</text>
<line x1="676.0" y1="542.5" x2="1224.0" y2="542.5" stroke="#efefef" stroke-width="1.0"/>
<text x="686.0" y="560.5" font-size="11.8" fill="#222" font-weight="bold">6×4.5</text>
<text x="796.0" y="560.5" font-size="11.5" fill="#555">56 × 41.5</text>
<text x="926.0" y="560.5" font-size="11.5" fill="#333">≈ 0.58×</text>
<text x="1080.0" y="560.5" font-size="11.5" fill="#333">≈ 0.38×</text>
<line x1="676.0" y1="579.0" x2="1224.0" y2="579.0" stroke="#efefef" stroke-width="1.0"/>
<rect x="916.0" y="576.6" width="148.0" height="32.5" fill="#fdf3e0" stroke="#e8a33d" stroke-width="1.0" rx="3"/>
<text x="686.0" y="597.0" font-size="11.8" fill="#222" font-weight="bold">6×6</text>
<text x="796.0" y="597.0" font-size="11.5" fill="#555">56 × 56</text>
<text x="926.0" y="597.0" font-size="11.5" fill="#b97511" font-weight="bold">≈ 0.43×</text>
<text x="1080.0" y="597.0" font-size="11.5" fill="#333">≈ 0.28×</text>
<line x1="676.0" y1="615.5" x2="1224.0" y2="615.5" stroke="#efefef" stroke-width="1.0"/>
<text x="686.0" y="633.5" font-size="11.8" fill="#222" font-weight="bold">6×7</text>
<text x="796.0" y="633.5" font-size="11.5" fill="#555">56 × 70</text>
<text x="926.0" y="633.5" font-size="11.5" fill="#333">≈ 0.34×</text>
<text x="1080.0" y="633.5" font-size="11.5" fill="#333">≈ 0.22×</text>
<line x1="676.0" y1="652.0" x2="1224.0" y2="652.0" stroke="#efefef" stroke-width="1.0"/>
<text x="686.0" y="670.0" font-size="11.8" fill="#222" font-weight="bold">6×9</text>
<text x="796.0" y="670.0" font-size="11.5" fill="#555">56 × 84</text>
<text x="926.0" y="670.0" font-size="11.5" fill="#333">≈ 0.29×</text>
<text x="1080.0" y="670.0" font-size="11.5" fill="#333">≈ 0.19×</text>
<line x1="676.0" y1="688.5" x2="1224.0" y2="688.5" stroke="#c9ced6" stroke-width="1.0"/>
<text x="676.0" y="717.3" font-size="11.5" fill="#555">任何 1:1 微距镜头都能覆盖表中每一种画幅——拍大画幅时只是用不到满倍率而已。</text>
<text x="676.0" y="739.8" font-size="11.5" fill="#b97511">0.43× 是 6×6 配全画幅这一档；设计文档 docs/design.zh-CN.md 里关于灰尘的那段计算用的就是这个倍率。</text>
<rect x="40.0" y="796.0" width="1200.0" height="98.0" fill="#fcfcfd" stroke="#e5e5e5" stroke-width="1" rx="5"/>
<text x="58.0" y="820.0" font-size="13.5" fill="#111" font-weight="bold">真正要紧的相机设置</text>
<rect x="58.0" y="828.0" width="156.0" height="50.0" fill="#ffffff" stroke="#e5e5e5" stroke-width="1.0" rx="4"/>
<text x="70.0" y="846.0" font-size="12.2" fill="#222" font-weight="bold">M 手动档</text>
<text x="70.0" y="860.0" font-size="10.5" fill="#777">曝光与闪光输出都手动</text>
<rect x="226.0" y="828.0" width="156.0" height="50.0" fill="#ffffff" stroke="#e5e5e5" stroke-width="1.0" rx="4"/>
<text x="238.0" y="846.0" font-size="12.2" fill="#222" font-weight="bold">基准 ISO</text>
<text x="238.0" y="860.0" font-size="10.5" fill="#777">ISO 100，不要自动 ISO</text>
<rect x="394.0" y="828.0" width="156.0" height="50.0" fill="#ffffff" stroke="#e5e5e5" stroke-width="1.0" rx="4"/>
<text x="406.0" y="846.0" font-size="12.2" fill="#222" font-weight="bold">f/5.6–f/8</text>
<text x="406.0" y="860.0" font-size="10.5" fill="#777">用 1/3 档微调曝光</text>
<rect x="562.0" y="828.0" width="156.0" height="50.0" fill="#ffffff" stroke="#e5e5e5" stroke-width="1.0" rx="4"/>
<text x="574.0" y="846.0" font-size="12.2" fill="#222" font-weight="bold">≤ 同步速度</text>
<text x="574.0" y="860.0" font-size="10.5" fill="#777">普通同步，高速同步无用</text>
<rect x="730.0" y="828.0" width="156.0" height="50.0" fill="#ffffff" stroke="#e5e5e5" stroke-width="1.0" rx="4"/>
<text x="742.0" y="846.0" font-size="12.2" fill="#222" font-weight="bold">raw</text>
<text x="742.0" y="860.0" font-size="10.5" fill="#777">整卷共用一条反转配方</text>
<rect x="898.0" y="828.0" width="324.0" height="50.0" fill="#fdf5e8" stroke="#e8a33d" stroke-width="1.0" rx="4"/>
<text x="910.0" y="846.0" font-size="12.2" fill="#b97511" font-weight="bold">快门模式</text>
<text x="910.0" y="860.0" font-size="10.5" fill="#b97511">先确认你所用的快门模式真的能触发闪光灯</text>
<text x="40.0" y="916.0" font-size="11" fill="#999">箱体几何取自 cad/neobox.blend；胶片平面高度取自 docs/design.zh-CN.md，放大倍率表取自 docs/scanning.zh-CN.md。相机、镜头、支架与热靴发射端不属于本项目，也不计入制作成本。</text>
</svg>