<svg xmlns="http://www.w3.org/2000/svg" width="1240" height="900" viewBox="0 0 1240 900" font-family="Helvetica, Arial, sans-serif">
<rect width="1240" height="900" fill="#ffffff"/>
<defs><marker id="lp" markerWidth="7" markerHeight="7" refX="6" refY="3.5" orient="auto"><path d="M0,0 L7,3.5 L0,7 z" fill="#e8a33d"/></marker></defs>
<text x="40.0" y="44.0" font-size="19" fill="#111" text-anchor="start" font-weight="bold">NeoBox 爆炸图——八个步骤、三根螺杆，没有一处粘接</text>
<text x="40.0" y="63.0" font-size="11.5" fill="#777" text-anchor="start">NeoBox 是一台用于相机翻拍（DSLR 扫描）135 与 120 胶片的闪光灯光源箱；相机在上方俯拍胶片。</text>
<text x="40.0" y="79.0" font-size="11.5" fill="#777" text-anchor="start">正视图，各零件沿装配轴按顺序分开，箱体已剖开。横向为真实比例——纵向的间隙是爆炸出来的，0.14 mm 的胶片也作了加厚绘制。</text>
<line x1="40" y1="94" x2="1200" y2="94" stroke="#ececec"/>
<line x1="40.0" y1="116.0" x2="145.0" y2="116.0" stroke="#5c6470" stroke-width="1.2"/>
<line x1="40.0" y1="112.5" x2="40.0" y2="119.5" stroke="#5c6470" stroke-width="1.2"/>
<line x1="61.0" y1="112.5" x2="61.0" y2="119.5" stroke="#5c6470" stroke-width="1.2"/>
<line x1="82.0" y1="112.5" x2="82.0" y2="119.5" stroke="#5c6470" stroke-width="1.2"/>
<line x1="103.0" y1="112.5" x2="103.0" y2="119.5" stroke="#5c6470" stroke-width="1.2"/>
<line x1="124.0" y1="112.5" x2="124.0" y2="119.5" stroke="#5c6470" stroke-width="1.2"/>
<line x1="145.0" y1="112.5" x2="145.0" y2="119.5" stroke="#5c6470" stroke-width="1.2"/>
<text x="153.0" y="119.6" font-size="11.0" fill="#5c6470" text-anchor="start">50 mm</text>
<line x1="325.0" y1="551.3" x2="325.0" y2="518.3" stroke="#c9ced6" stroke-width="0.9" stroke-dasharray="5 4"/>
<line x1="325.0" y1="481.9" x2="325.0" y2="456.9" stroke="#c9ced6" stroke-width="0.9" stroke-dasharray="5 4"/>
<line x1="325.0" y1="376.4" x2="325.0" y2="353.4" stroke="#c9ced6" stroke-width="0.9" stroke-dasharray="5 4"/>
<line x1="325.0" y1="323.3" x2="325.0" y2="304.3" stroke="#c9ced6" stroke-width="0.9" stroke-dasharray="5 4"/>
<line x1="325.0" y1="288.9" x2="325.0" y2="269.9" stroke="#c9ced6" stroke-width="0.9" stroke-dasharray="5 4"/>
<line x1="325.0" y1="258.7" x2="325.0" y2="239.7" stroke="#c9ced6" stroke-width="0.9" stroke-dasharray="5 4"/>
<line x1="325.0" y1="225.7" x2="325.0" y2="211.7" stroke="#c9ced6" stroke-width="0.9" stroke-dasharray="5 4"/>
<line x1="325.0" y1="209.5" x2="325.0" y2="197.5" stroke="#c9ced6" stroke-width="0.9" stroke-dasharray="5 4"/>
<line x1="325.0" y1="183.1" x2="325.0" y2="170.1" stroke="#c9ced6" stroke-width="0.9" stroke-dasharray="5 4"/>
<line x1="178.0" y1="485.4" x2="178.0" y2="453.4" stroke="#c9ced6" stroke-width="0.9" stroke-dasharray="5 4"/>
<line x1="419.5" y1="485.4" x2="419.5" y2="453.4" stroke="#c9ced6" stroke-width="0.9" stroke-dasharray="5 4"/>
<line x1="472.0" y1="485.4" x2="472.0" y2="453.4" stroke="#c9ced6" stroke-width="0.9" stroke-dasharray="5 4"/>
<line x1="178.0" y1="379.9" x2="178.0" y2="349.9" stroke="#c9ced6" stroke-width="0.9" stroke-dasharray="5 4"/>
<line x1="419.5" y1="379.9" x2="419.5" y2="349.9" stroke="#c9ced6" stroke-width="0.9" stroke-dasharray="5 4"/>
<line x1="472.0" y1="379.9" x2="472.0" y2="349.9" stroke="#c9ced6" stroke-width="0.9" stroke-dasharray="5 4"/>
<line x1="178.0" y1="326.8" x2="178.0" y2="300.8" stroke="#c9ced6" stroke-width="0.9" stroke-dasharray="5 4"/>
<line x1="419.5" y1="326.8" x2="419.5" y2="300.8" stroke="#c9ced6" stroke-width="0.9" stroke-dasharray="5 4"/>
<line x1="472.0" y1="326.8" x2="472.0" y2="300.8" stroke="#c9ced6" stroke-width="0.9" stroke-dasharray="5 4"/>
<rect x="112.9" y="554.8" width="424.2" height="184.8" fill="#e8a33d" opacity="0.08"/>
<rect x="106.6" y="739.6" width="436.8" height="8.4" fill="#f4f4f4" stroke="#5c6470" stroke-width="1.0"/>
<rect x="106.6" y="554.8" width="6.3" height="184.8" fill="#f4f4f4" stroke="#5c6470" stroke-width="1.0"/>
<rect x="537.1" y="554.8" width="6.3" height="184.8" fill="#f4f4f4" stroke="#5c6470" stroke-width="1.0"/>
<line x1="123.4" y1="685.0" x2="203.2" y2="630.4" stroke="#e8a33d" stroke-width="1.4" opacity="0.7" stroke-dasharray="5 4" marker-end="url(#lp)"/>
<line x1="526.6" y1="685.0" x2="446.8" y2="630.4" stroke="#e8a33d" stroke-width="1.4" opacity="0.7" stroke-dasharray="5 4" marker-end="url(#lp)"/>
<line x1="157.0" y1="580.0" x2="272.5" y2="556.9" stroke="#e8a33d" stroke-width="1.4" opacity="0.7" stroke-dasharray="5 4" marker-end="url(#lp)"/>
<line x1="493.0" y1="580.0" x2="377.5" y2="556.9" stroke="#e8a33d" stroke-width="1.4" opacity="0.7" stroke-dasharray="5 4" marker-end="url(#lp)"/>
<rect x="246.2" y="624.1" width="157.5" height="115.5" fill="#4a4a52" stroke="#2c2c33" stroke-width="1.0"/>
<rect x="246.2" y="622.0" width="157.5" height="2.1" fill="#ffffff" stroke="#b9c0c8" stroke-width="0.9"/>
<rect x="285.1" y="699.7" width="79.8" height="39.9" fill="none" stroke="#aab0b8" stroke-width="1.0" stroke-dasharray="4 3"/>
<text x="325.0" y="655.6" font-size="11.2" fill="#dfe3e8" text-anchor="middle">NEEWER TT560</text>
<text x="325.0" y="670.6" font-size="11.2" fill="#dfe3e8" text-anchor="middle">平躺，灯头转 90°</text>
<text x="325.0" y="685.6" font-size="11.2" fill="#dfe3e8" text-anchor="middle">朝纸面里侧发光</text>
<text x="325.0" y="601.0" font-size="11.4" fill="#a98c52" text-anchor="middle">白色混光腔 · 净空 33 mm——裸白色料</text>
<circle cx="403.8" cy="618.5" r="1.8" fill="#c2c8d0"/>
<text x="411.1" y="621.1" font-size="11.0" fill="#5c6470" text-anchor="start">顶面贴白纸</text>
<circle cx="364.9" cy="713.0" r="1.8" fill="#8d939c"/>
<line x1="364.9" y1="713.0" x2="406.9" y2="713.0" stroke="#aab0b8" stroke-width="0.9"/>
<text x="411.1" y="716.5" font-size="11.0" fill="#5c6470" text-anchor="start">触发接收器</text>
<text x="411.1" y="730.5" font-size="11.0" fill="#5c6470" text-anchor="start">（在闪光灯后方）</text>
<rect x="99.7" y="485.4" width="120.3" height="8.4" fill="#dfe3e8" stroke="#5c6470" stroke-width="1.0"/>
<rect x="430.0" y="485.4" width="120.3" height="8.4" fill="#dfe3e8" stroke="#5c6470" stroke-width="1.0"/>
<rect x="99.7" y="493.8" width="6.9" height="21.0" fill="#dfe3e8" stroke="#5c6470" stroke-width="1.0"/>
<rect x="543.4" y="493.8" width="6.9" height="21.0" fill="#dfe3e8" stroke="#5c6470" stroke-width="1.0"/>
<rect x="167.5" y="493.8" width="21.0" height="16.8" fill="#dfe3e8" stroke="#5c6470" stroke-width="1.0"/>
<rect x="170.7" y="498.0" width="14.7" height="12.6" fill="#c8a24a" stroke="#8f7228" stroke-width="0.8"/>
<rect x="409.0" y="493.8" width="21.0" height="16.8" fill="#dfe3e8" stroke="#5c6470" stroke-width="1.0"/>
<rect x="412.1" y="498.0" width="14.7" height="12.6" fill="#c8a24a" stroke="#8f7228" stroke-width="0.8"/>
<rect x="461.5" y="493.8" width="21.0" height="16.8" fill="#dfe3e8" stroke="#5c6470" stroke-width="1.0"/>
<rect x="464.6" y="498.0" width="14.7" height="12.6" fill="#c8a24a" stroke="#8f7228" stroke-width="0.8"/>
<line x1="220.0" y1="489.6" x2="430.0" y2="489.6" stroke="#e8a33d"/>
<line x1="220.0" y1="485.6" x2="220.0" y2="493.6" stroke="#e8a33d"/>
<line x1="430.0" y1="485.6" x2="430.0" y2="493.6" stroke="#e8a33d"/>
<text x="325.0" y="505.6" font-size="11.0" fill="#b97511" text-anchor="middle">100</text>
<rect x="171.7" y="379.9" width="12.6" height="73.5" fill="#9aa2ad" stroke="#6c7480" stroke-width="0.8"/>
<rect x="166.4" y="405.1" width="23.1" height="8.4" fill="#7d8794" stroke="#5a626d" stroke-width="0.8"/>
<rect x="413.2" y="379.9" width="12.6" height="73.5" fill="#9aa2ad" stroke="#6c7480" stroke-width="0.8"/>
<rect x="407.9" y="405.1" width="23.1" height="8.4" fill="#7d8794" stroke="#5a626d" stroke-width="0.8"/>
<rect x="465.7" y="379.9" width="12.6" height="73.5" fill="#9aa2ad" stroke="#6c7480" stroke-width="0.8"/>
<rect x="460.5" y="405.1" width="23.1" height="8.4" fill="#7d8794" stroke="#5a626d" stroke-width="0.8"/>
<text x="396.0" y="393.5" font-size="11.0" fill="#5c6470" text-anchor="end">前螺杆 (45, −100)</text>
<line x1="400.0" y1="390.0" x2="413.2" y2="390.0" stroke="#a9b0ba" stroke-width="0.9"/>
<circle cx="413.2" cy="390.0" r="2.0" fill="#a9b0ba"/>
<text x="396.0" y="432.0" font-size="11.0" fill="#5c6470" text-anchor="end">后面两根 (±70, +65)</text>
<line x1="293.5" y1="428.5" x2="184.3" y2="428.5" stroke="#a9b0ba" stroke-width="0.9"/>
<circle cx="184.3" cy="428.5" r="2.0" fill="#a9b0ba"/>
<polyline points="400.0,428.5 400.0,466.0 478.3,466.0 478.3,455.4" fill="none" stroke="#a9b0ba" stroke-width="0.9"/>
<circle cx="478.3" cy="453.4" r="2.0" fill="#a9b0ba"/>
<rect x="115.0" y="339.4" width="105.0" height="10.5" fill="#3c424c" stroke="#23272e" stroke-width="1.0"/>
<rect x="430.0" y="339.4" width="105.0" height="10.5" fill="#3c424c" stroke="#23272e" stroke-width="1.0"/>
<line x1="171.2" y1="349.3" x2="171.2" y2="340.0" stroke="#aab2bd" stroke-width="1.0" stroke-dasharray="3 2.5"/>
<line x1="184.8" y1="349.3" x2="184.8" y2="340.0" stroke="#aab2bd" stroke-width="1.0" stroke-dasharray="3 2.5"/>
<line x1="465.2" y1="349.3" x2="465.2" y2="340.0" stroke="#aab2bd" stroke-width="1.0" stroke-dasharray="3 2.5"/>
<line x1="478.8" y1="349.3" x2="478.8" y2="340.0" stroke="#aab2bd" stroke-width="1.0" stroke-dasharray="3 2.5"/>
<rect x="199.0" y="326.8" width="42.0" height="12.6" fill="#3c424c" stroke="#23272e" stroke-width="1.0"/>
<rect x="409.0" y="326.8" width="42.0" height="12.6" fill="#3c424c" stroke="#23272e" stroke-width="1.0"/>
<line x1="220.0" y1="344.6" x2="430.0" y2="344.6" stroke="#e8a33d"/>
<line x1="220.0" y1="340.6" x2="220.0" y2="348.6" stroke="#e8a33d"/>
<line x1="430.0" y1="340.6" x2="430.0" y2="348.6" stroke="#e8a33d"/>
<text x="325.0" y="333.9" font-size="11.0" fill="#b97511" text-anchor="middle">100</text>
<rect x="166.4" y="292.4" width="23.1" height="8.4" fill="#7d8794" stroke="#5a626d" stroke-width="0.8"/>
<rect x="407.9" y="292.4" width="23.1" height="8.4" fill="#7d8794" stroke="#5a626d" stroke-width="0.8"/>
<rect x="460.5" y="292.4" width="23.1" height="8.4" fill="#7d8794" stroke="#5a626d" stroke-width="0.8"/>
<rect x="209.5" y="262.2" width="231.0" height="4.2" fill="#ffe9a8" stroke="#8a7a3f" stroke-width="1.0"/>
<rect x="209.5" y="228.2" width="89.2" height="8.0" fill="#2f3238" stroke="#1b1e22" stroke-width="1.0"/>
<rect x="351.2" y="228.2" width="89.2" height="8.0" fill="#2f3238" stroke="#1b1e22" stroke-width="1.0"/>
<rect x="209.5" y="225.7" width="78.3" height="2.5" fill="#2f3238" stroke="#1b1e22" stroke-width="1.0"/>
<rect x="362.2" y="225.7" width="78.3" height="2.5" fill="#2f3238" stroke="#1b1e22" stroke-width="1.0"/>
<rect x="287.8" y="227.4" width="9.9" height="0.8" fill="#2f3238" stroke="#1b1e22" stroke-width="1.0"/>
<rect x="352.3" y="227.4" width="9.9" height="0.8" fill="#2f3238" stroke="#1b1e22" stroke-width="1.0"/>
<rect x="224.2" y="225.7" width="12.6" height="4.2" fill="none" stroke="#8d939c" stroke-width="0.8" stroke-dasharray="2.5 2"/>
<rect x="413.2" y="225.7" width="12.6" height="4.2" fill="none" stroke="#8d939c" stroke-width="0.8" stroke-dasharray="2.5 2"/>
<rect x="288.2" y="209.5" width="73.5" height="2.2" fill="#ffd88a" stroke="#b97511" stroke-width="0.9"/>
<rect x="224.2" y="193.3" width="12.6" height="4.2" rx="1.2" fill="#e8a33d" stroke="#b97511" stroke-width="0.9"/>
<rect x="224.2" y="183.1" width="12.6" height="4.2" rx="1.2" fill="#e8a33d" stroke="#b97511" stroke-width="0.9"/>
<polygon points="227.5,187.7 233.5,187.7 230.5,190.3" fill="#b97511"/>
<polygon points="227.5,192.9 233.5,192.9 230.5,190.3" fill="#b97511"/>
<rect x="413.2" y="193.3" width="12.6" height="4.2" rx="1.2" fill="#e8a33d" stroke="#b97511" stroke-width="0.9"/>
<rect x="413.2" y="183.1" width="12.6" height="4.2" rx="1.2" fill="#e8a33d" stroke="#b97511" stroke-width="0.9"/>
<polygon points="416.5,187.7 422.5,187.7 419.5,190.3" fill="#b97511"/>
<polygon points="416.5,192.9 422.5,192.9 419.5,190.3" fill="#b97511"/>
<rect x="209.5" y="163.0" width="89.2" height="6.3" fill="#4d5563" stroke="#2b3038" stroke-width="1.0"/>
<rect x="351.2" y="163.0" width="89.2" height="6.3" fill="#4d5563" stroke="#2b3038" stroke-width="1.0"/>
<rect x="288.5" y="169.3" width="9.2" height="0.8" fill="#4d5563" stroke="#2b3038" stroke-width="1.0"/>
<rect x="352.3" y="169.3" width="9.2" height="0.8" fill="#4d5563" stroke="#2b3038" stroke-width="1.0"/>
<rect x="224.2" y="165.1" width="12.6" height="4.2" fill="none" stroke="#8d939c" stroke-width="0.8" stroke-dasharray="2.5 2"/>
<rect x="413.2" y="165.1" width="12.6" height="4.2" fill="none" stroke="#8d939c" stroke-width="0.8" stroke-dasharray="2.5 2"/>
<rect x="322.0" y="100" width="16" height="6" rx="1.5" fill="#ffffff" stroke="#5c6470" stroke-width="1.2"/>
<rect x="306.0" y="106" width="52" height="24" rx="3" fill="#ffffff" stroke="#5c6470" stroke-width="1.3"/>
<polygon points="320.0,130 344.0,130 338.0,140 326.0,140" fill="#eef0f3" stroke="#5c6470" stroke-width="1.2"/>
<circle cx="318.0" cy="113" r="2.2" fill="#5c6470"/>
<line x1="332.0" y1="207.5" x2="332.0" y2="146" stroke="#e8a33d" stroke-width="1.6" stroke-dasharray="6 4" marker-end="url(#lp)"/>
<text x="318.0" y="157.0" font-size="11.0" fill="#b97511" text-anchor="end">光从这里出</text>
<text x="368.0" y="114.0" font-size="11.0" fill="#5c6470" text-anchor="start">相机在上方，俯拍胶片</text>
<text x="368.0" y="129.0" font-size="11.0" fill="#5c6470" text-anchor="start">光从顶盖开口射出</text>
<line x1="547.4" y1="651.4" x2="554.0" y2="651.4" stroke="#e4e8ec" stroke-width="0.9" stroke-dasharray="2 3"/>
<text x="560.0" y="655.0" font-size="11.0" fill="#5c6470" text-anchor="start">208 × 273 × 92</text>
<line x1="554.3" y1="500.1" x2="554.0" y2="500.1" stroke="#e4e8ec" stroke-width="0.9" stroke-dasharray="2 3"/>
<text x="560.0" y="503.7" font-size="11.0" fill="#5c6470" text-anchor="start">214.6 × 279.6 × 14</text>
<line x1="482.3" y1="391.9" x2="554.0" y2="391.9" stroke="#e4e8ec" stroke-width="0.9" stroke-dasharray="2 3"/>
<text x="560.0" y="395.5" font-size="11.0" fill="#5c6470" text-anchor="start">M6 × 35 · ×3</text>
<line x1="487.6" y1="409.3" x2="554.0" y2="409.3" stroke="#e4e8ec" stroke-width="0.9" stroke-dasharray="2 3"/>
<text x="560.0" y="412.9" font-size="11.0" fill="#5c6470" text-anchor="start">M6 螺母（下）· ×3</text>
<line x1="539.0" y1="338.3" x2="554.0" y2="338.3" stroke="#e4e8ec" stroke-width="0.9" stroke-dasharray="2 3"/>
<text x="560.0" y="341.9" font-size="11.0" fill="#5c6470" text-anchor="start">200 × 230 × 11</text>
<line x1="487.6" y1="296.6" x2="554.0" y2="296.6" stroke="#e4e8ec" stroke-width="0.9" stroke-dasharray="2 3"/>
<text x="560.0" y="300.2" font-size="11.0" fill="#5c6470" text-anchor="start">M6 螺母（上）· ×3</text>
<text x="447.0" y="170.0" font-size="11.0" fill="#5c6470" text-anchor="start">夹子上盖 · 110 × 170 × 3.4</text>
<text x="447.0" y="193.8" font-size="11.0" fill="#5c6470" text-anchor="start">Ø6 × 2 磁铁，位于 (±45, ±75)</text>
<text x="447.0" y="215.5" font-size="11.0" fill="#5c6470" text-anchor="start">135 胶片 · 厚 0.14（图中加厚）</text>
<text x="447.0" y="234.4" font-size="11.0" fill="#5c6470" text-anchor="start">夹子底座 · 110 × 170 × 5</text>
<text x="447.0" y="267.8" font-size="11.0" fill="#5c6470" text-anchor="start">乳白亚克力 · 110 × 130 × 2</text>
<line x1="150.0" y1="716.0" x2="150.0" y2="726.5" stroke="#9aa2ad" stroke-width="1.7"/>
<polygon points="145.6,724.8 154.4,724.8 150.0,731.2" fill="#9aa2ad"/>
<line x1="140.0" y1="733.6" x2="160.0" y2="733.6" stroke="#9aa2ad" stroke-width="1.8"/>
<line x1="143.8" y1="733.8" x2="140.8" y2="738.0" stroke="#9aa2ad" stroke-width="1.0"/>
<line x1="148.4" y1="733.8" x2="145.4" y2="738.0" stroke="#9aa2ad" stroke-width="1.0"/>
<line x1="153.0" y1="733.8" x2="150.0" y2="738.0" stroke="#9aa2ad" stroke-width="1.0"/>
<line x1="157.6" y1="733.8" x2="154.6" y2="738.0" stroke="#9aa2ad" stroke-width="1.0"/>
<line x1="162.2" y1="733.8" x2="159.2" y2="738.0" stroke="#9aa2ad" stroke-width="1.0"/>
<line x1="150.0" y1="523.8" x2="150.0" y2="534.3" stroke="#9aa2ad" stroke-width="1.7"/>
<polygon points="145.6,532.6 154.4,532.6 150.0,539.0" fill="#9aa2ad"/>
<line x1="140.0" y1="541.4" x2="160.0" y2="541.4" stroke="#9aa2ad" stroke-width="1.8"/>
<line x1="143.8" y1="541.6" x2="140.8" y2="545.8" stroke="#9aa2ad" stroke-width="1.0"/>
<line x1="148.4" y1="541.6" x2="145.4" y2="545.8" stroke="#9aa2ad" stroke-width="1.0"/>
<line x1="153.0" y1="541.6" x2="150.0" y2="545.8" stroke="#9aa2ad" stroke-width="1.0"/>
<line x1="157.6" y1="541.6" x2="154.6" y2="545.8" stroke="#9aa2ad" stroke-width="1.0"/>
<line x1="162.2" y1="541.6" x2="159.2" y2="545.8" stroke="#9aa2ad" stroke-width="1.0"/>
<line x1="150.0" y1="458.4" x2="150.0" y2="480.4" stroke="#5c6470" stroke-width="1.8"/>
<polygon points="157.4,469.4 153.7,473.6 146.3,473.6 142.6,469.4 146.3,465.2 153.7,465.2" fill="#eef0f3" stroke="#5c6470" stroke-width="1.5"/>
<line x1="150.0" y1="353.9" x2="150.0" y2="375.9" stroke="#5c6470" stroke-width="1.8"/>
<polygon points="157.4,364.9 153.7,369.1 146.3,369.1 142.6,364.9 146.3,360.7 153.7,360.7" fill="#eef0f3" stroke="#5c6470" stroke-width="1.5"/>
<line x1="150.0" y1="302.8" x2="150.0" y2="324.8" stroke="#5c6470" stroke-width="1.8"/>
<polygon points="157.4,313.8 153.7,318.0 146.3,318.0 142.6,313.8 146.3,309.6 153.7,309.6" fill="#eef0f3" stroke="#5c6470" stroke-width="1.5"/>
<line x1="150.0" y1="268.4" x2="150.0" y2="278.9" stroke="#9aa2ad" stroke-width="1.7"/>
<polygon points="145.6,277.2 154.4,277.2 150.0,283.6" fill="#9aa2ad"/>
<line x1="140.0" y1="286.0" x2="160.0" y2="286.0" stroke="#9aa2ad" stroke-width="1.8"/>
<line x1="143.8" y1="286.2" x2="140.8" y2="290.4" stroke="#9aa2ad" stroke-width="1.0"/>
<line x1="148.4" y1="286.2" x2="145.4" y2="290.4" stroke="#9aa2ad" stroke-width="1.0"/>
<line x1="153.0" y1="286.2" x2="150.0" y2="290.4" stroke="#9aa2ad" stroke-width="1.0"/>
<line x1="157.6" y1="286.2" x2="154.6" y2="290.4" stroke="#9aa2ad" stroke-width="1.0"/>
<line x1="162.2" y1="286.2" x2="159.2" y2="290.4" stroke="#9aa2ad" stroke-width="1.0"/>
<line x1="150.0" y1="238.2" x2="150.0" y2="248.7" stroke="#9aa2ad" stroke-width="1.7"/>
<polygon points="145.6,247.0 154.4,247.0 150.0,253.4" fill="#9aa2ad"/>
<line x1="140.0" y1="255.8" x2="160.0" y2="255.8" stroke="#9aa2ad" stroke-width="1.8"/>
<line x1="143.8" y1="256.0" x2="140.8" y2="260.2" stroke="#9aa2ad" stroke-width="1.0"/>
<line x1="148.4" y1="256.0" x2="145.4" y2="260.2" stroke="#9aa2ad" stroke-width="1.0"/>
<line x1="153.0" y1="256.0" x2="150.0" y2="260.2" stroke="#9aa2ad" stroke-width="1.0"/>
<line x1="157.6" y1="256.0" x2="154.6" y2="260.2" stroke="#9aa2ad" stroke-width="1.0"/>
<line x1="162.2" y1="256.0" x2="159.2" y2="260.2" stroke="#9aa2ad" stroke-width="1.0"/>
<rect x="142.0" y="166.6" width="17" height="5.0" rx="1.4" fill="#e8a33d" stroke="#b97511" stroke-width="0.9"/>
<rect x="142.0" y="181.6" width="17" height="5.0" rx="1.4" fill="#e8a33d" stroke="#b97511" stroke-width="0.9"/>
<polygon points="146.4,173.0 153.6,173.0 150.0,176.2" fill="#b97511"/>
<polygon points="146.4,180.2 153.6,180.2 150.0,177.0" fill="#b97511"/>
<polyline points="69.0,731.2 102.6,731.2" fill="none" stroke="#c9ced6" stroke-width="0.9"/>
<circle cx="103.6" cy="731.2" r="2.0" fill="#c9ced6"/>
<circle cx="58.0" cy="731.2" r="9.5" fill="#ffffff" stroke="#e8a33d" stroke-width="1.5"/>
<text x="58.0" y="735.4" font-size="12" fill="#b97511" text-anchor="middle" font-weight="bold">1</text>
<polyline points="69.0,697.6 242.2,697.6" fill="none" stroke="#c9ced6" stroke-width="0.9"/>
<circle cx="243.2" cy="697.6" r="2.0" fill="#c9ced6"/>
<circle cx="58.0" cy="697.6" r="9.5" fill="#ffffff" stroke="#e8a33d" stroke-width="1.5"/>
<text x="58.0" y="701.8" font-size="12" fill="#b97511" text-anchor="middle" font-weight="bold">2</text>
<polyline points="69.0,489.6 95.7,489.6" fill="none" stroke="#c9ced6" stroke-width="0.9"/>
<circle cx="96.7" cy="489.6" r="2.0" fill="#c9ced6"/>
<circle cx="58.0" cy="489.6" r="9.5" fill="#ffffff" stroke="#e8a33d" stroke-width="1.5"/>
<text x="58.0" y="493.8" font-size="12" fill="#b97511" text-anchor="middle" font-weight="bold">3</text>
<polyline points="69.0,386.2 167.7,386.2" fill="none" stroke="#c9ced6" stroke-width="0.9"/>
<circle cx="168.7" cy="386.2" r="2.0" fill="#c9ced6"/>
<circle cx="58.0" cy="386.2" r="9.5" fill="#ffffff" stroke="#e8a33d" stroke-width="1.5"/>
<text x="58.0" y="390.4" font-size="12" fill="#b97511" text-anchor="middle" font-weight="bold">4</text>
<polyline points="69.0,338.3 111.0,338.3" fill="none" stroke="#c9ced6" stroke-width="0.9"/>
<circle cx="112.0" cy="338.3" r="2.0" fill="#c9ced6"/>
<circle cx="58.0" cy="338.3" r="9.5" fill="#ffffff" stroke="#e8a33d" stroke-width="1.5"/>
<text x="58.0" y="342.5" font-size="12" fill="#b97511" text-anchor="middle" font-weight="bold">5</text>
<polyline points="69.0,264.3 205.5,264.3" fill="none" stroke="#c9ced6" stroke-width="0.9"/>
<circle cx="206.5" cy="264.3" r="2.0" fill="#c9ced6"/>
<circle cx="58.0" cy="264.3" r="9.5" fill="#ffffff" stroke="#e8a33d" stroke-width="1.5"/>
<text x="58.0" y="268.5" font-size="12" fill="#b97511" text-anchor="middle" font-weight="bold">6</text>
<polyline points="69.0,230.9 205.5,230.9" fill="none" stroke="#c9ced6" stroke-width="0.9"/>
<circle cx="206.5" cy="230.9" r="2.0" fill="#c9ced6"/>
<circle cx="58.0" cy="230.9" r="9.5" fill="#ffffff" stroke="#e8a33d" stroke-width="1.5"/>
<text x="58.0" y="235.1" font-size="12" fill="#b97511" text-anchor="middle" font-weight="bold">7</text>
<polyline points="69.0,195.4 220.2,195.4" fill="none" stroke="#c9ced6" stroke-width="0.9"/>
<circle cx="221.2" cy="195.4" r="2.0" fill="#c9ced6"/>
<circle cx="58.0" cy="195.4" r="9.5" fill="#ffffff" stroke="#e8a33d" stroke-width="1.5"/>
<text x="58.0" y="199.6" font-size="12" fill="#b97511" text-anchor="middle" font-weight="bold">8</text>
<text x="690.0" y="126.0" font-size="13.5" fill="#111" text-anchor="start" font-weight="bold">装配顺序——每一步做什么，靠什么固定</text>
<circle cx="701.0" cy="154.0" r="9.5" fill="#ffffff" stroke="#e8a33d" stroke-width="1.5"/>
<text x="701.0" y="158.2" font-size="12" fill="#b97511" text-anchor="middle" font-weight="bold">1</text>
<text x="718.0" y="158.5" font-size="12.4" fill="#111" text-anchor="start" font-weight="bold">箱体</text>
<text x="718.0" y="176.0" font-size="11.5" fill="#555" text-anchor="start">整体打印一件——底 4、壁 3，内腔 202 × 267 × 88。外表面喷哑光黑；内部保持裸白色料，</text>
<text x="718.0" y="192.0" font-size="11.5" fill="#555" text-anchor="start">因为它本身就是光源。</text>
<circle cx="701.0" cy="219.0" r="9.5" fill="#ffffff" stroke="#e8a33d" stroke-width="1.5"/>
<text x="701.0" y="223.2" font-size="12" fill="#b97511" text-anchor="middle" font-weight="bold">2</text>
<text x="718.0" y="223.5" font-size="12.4" fill="#111" text-anchor="start" font-weight="bold">闪光灯与触发接收器</text>
<text x="718.0" y="241.0" font-size="11.5" fill="#555" text-anchor="start">平躺放置，灯头转 90° 朝远端墙面发光。接收器接在灯脚一侧，顶面贴一块白纸。没有任何固</text>
<text x="718.0" y="257.0" font-size="11.5" fill="#555" text-anchor="start">定——它最后从抽拉口装入。</text>
<circle cx="701.0" cy="284.0" r="9.5" fill="#ffffff" stroke="#e8a33d" stroke-width="1.5"/>
<text x="701.0" y="288.2" font-size="12" fill="#b97511" text-anchor="middle" font-weight="bold">3</text>
<text x="718.0" y="288.5" font-size="12.4" fill="#111" text-anchor="start" font-weight="bold">顶盖</text>
<text x="718.0" y="306.0" font-size="11.5" fill="#555" text-anchor="start">直接盖上。10 mm 裙边搭住箱壁，既定位又挡光。不用螺钉。盖下三个柱子里各埋一颗 M6 热</text>
<text x="718.0" y="322.0" font-size="11.5" fill="#555" text-anchor="start">熔铜螺母。</text>
<circle cx="701.0" cy="349.0" r="9.5" fill="#ffffff" stroke="#e8a33d" stroke-width="1.5"/>
<text x="701.0" y="353.2" font-size="12" fill="#b97511" text-anchor="middle" font-weight="bold">4</text>
<text x="718.0" y="353.5" font-size="12.4" fill="#111" text-anchor="start" font-weight="bold">3 根 M6 × 35 螺杆，6 颗螺母</text>
<text x="718.0" y="371.0" font-size="11.5" fill="#555" text-anchor="start">螺杆拧进铜螺母。下螺母定胶片台高度，上螺母把它夹紧。前螺杆 (45, −100) 调俯仰，后面两</text>
<text x="718.0" y="387.0" font-size="11.5" fill="#555" text-anchor="start">根 (±70, +65) 调横滚。</text>
<circle cx="701.0" cy="414.0" r="9.5" fill="#ffffff" stroke="#e8a33d" stroke-width="1.5"/>
<text x="701.0" y="418.2" font-size="12" fill="#b97511" text-anchor="middle" font-weight="bold">5</text>
<text x="718.0" y="418.5" font-size="12.4" fill="#111" text-anchor="start" font-weight="bold">胶片台</text>
<text x="718.0" y="436.0" font-size="11.5" fill="#555" text-anchor="start">200 × 230，5 mm 厚板，四角 L 挡块与板一体，总高 11。开口 100 × 120。三个 Ø6.5 过孔</text>
<text x="718.0" y="452.0" font-size="11.5" fill="#555" text-anchor="start">——绝对不要攻丝。顶面在 z = 114。</text>
<circle cx="701.0" cy="479.0" r="9.5" fill="#ffffff" stroke="#e8a33d" stroke-width="1.5"/>
<text x="701.0" y="483.2" font-size="12" fill="#b97511" text-anchor="middle" font-weight="bold">6</text>
<text x="718.0" y="483.5" font-size="12.4" fill="#111" text-anchor="start" font-weight="bold">乳白扩散板</text>
<text x="718.0" y="501.0" font-size="11.5" fill="#555" text-anchor="start">110 × 130 × 2 乳白亚克力，平放在开口上。不作任何固定：靠夹子的自重压平，位于胶片下</text>
<text x="718.0" y="517.0" font-size="11.5" fill="#555" text-anchor="start">方 4.3 mm。</text>
<circle cx="701.0" cy="544.0" r="9.5" fill="#ffffff" stroke="#e8a33d" stroke-width="1.5"/>
<text x="701.0" y="548.2" font-size="12" fill="#b97511" text-anchor="middle" font-weight="bold">7</text>
<text x="718.0" y="548.5" font-size="12.4" fill="#111" text-anchor="start" font-weight="bold">胶片夹——底座、胶片、上盖</text>
<text x="718.0" y="566.0" font-size="11.5" fill="#555" text-anchor="start">底座与上盖同为 110 × 170，由四角挡块在 X、Y 方向定位。胶片从侧面滑入，整卷拍完前不</text>
<text x="718.0" y="582.0" font-size="11.5" fill="#555" text-anchor="start">打开。胶片平面 z ≈ 120.3。</text>
<circle cx="701.0" cy="609.0" r="9.5" fill="#ffffff" stroke="#e8a33d" stroke-width="1.5"/>
<text x="701.0" y="613.2" font-size="12" fill="#b97511" text-anchor="middle" font-weight="bold">8</text>
<text x="718.0" y="613.5" font-size="12.4" fill="#111" text-anchor="start" font-weight="bold">闭合磁铁</text>
<text x="718.0" y="631.0" font-size="11.5" fill="#555" text-anchor="start">四对 Ø6 × 2 磁铁位于 (±45, ±75)，把上下夹紧——每个夹子 8 颗。</text>
<text x="718.0" y="647.0" font-size="11.5" fill="#555" text-anchor="start">另外 4 颗底座磁铁和 Ø12 铁垫片，只有要把箱子立起来时才需要。</text>
<rect x="690.0" y="680.0" width="510.0" height="168.0" fill="none" stroke="#e5e5e5" rx="5"/>
<text x="708.0" y="706.0" font-size="13" fill="#111" text-anchor="start" font-weight="bold">每个结合面靠什么固定</text>
<line x1="716.0" y1="720.0" x2="716.0" y2="742.0" stroke="#5c6470" stroke-width="1.8"/>
<polygon points="723.4,731.0 719.7,735.2 712.3,735.2 708.6,731.0 712.3,726.8 719.7,726.8" fill="#eef0f3" stroke="#5c6470" stroke-width="1.5"/>
<text x="742.0" y="728.0" font-size="11.8" fill="#333" text-anchor="start" font-weight="bold">螺纹夹紧</text>
<text x="742.0" y="745.0" font-size="11.2" fill="#777" text-anchor="start">M6 螺杆拧进铜螺母，或螺母锁在螺杆上。任何姿态都不会松。</text>
<rect x="708.0" y="764.0" width="17" height="5.0" rx="1.4" fill="#e8a33d" stroke="#b97511" stroke-width="0.9"/>
<rect x="708.0" y="779.0" width="17" height="5.0" rx="1.4" fill="#e8a33d" stroke="#b97511" stroke-width="0.9"/>
<polygon points="712.4,770.4 719.6,770.4 716.0,773.6" fill="#b97511"/>
<polygon points="712.4,777.6 719.6,777.6 716.0,774.4" fill="#b97511"/>
<text x="742.0" y="771.0" font-size="11.8" fill="#333" text-anchor="start" font-weight="bold">磁吸</text>
<text x="742.0" y="788.0" font-size="11.2" fill="#777" text-anchor="start">Ø6 × 2 钕磁铁成对吸合。箱子立起也不散，用手就能掰开。</text>
<line x1="716.0" y1="806.0" x2="716.0" y2="816.5" stroke="#9aa2ad" stroke-width="1.7"/>
<polygon points="711.6,814.8 720.4,814.8 716.0,821.2" fill="#9aa2ad"/>
<line x1="706.0" y1="823.6" x2="726.0" y2="823.6" stroke="#9aa2ad" stroke-width="1.8"/>
<line x1="709.8" y1="823.8" x2="706.8" y2="828.0" stroke="#9aa2ad" stroke-width="1.0"/>
<line x1="714.4" y1="823.8" x2="711.4" y2="828.0" stroke="#9aa2ad" stroke-width="1.0"/>
<line x1="719.0" y1="823.8" x2="716.0" y2="828.0" stroke="#9aa2ad" stroke-width="1.0"/>
<line x1="723.6" y1="823.8" x2="720.6" y2="828.0" stroke="#9aa2ad" stroke-width="1.0"/>
<line x1="728.2" y1="823.8" x2="725.2" y2="828.0" stroke="#9aa2ad" stroke-width="1.0"/>
<text x="742.0" y="814.0" font-size="11.8" fill="#333" text-anchor="start" font-weight="bold">自重搁置</text>
<text x="742.0" y="831.0" font-size="11.2" fill="#777" text-anchor="start">靠几何形状定位，靠自重压住。没有紧固件，直接拿起来即可。</text>
<rect x="40.0" y="774.0" width="620.0" height="78.0" fill="#fdf6ea" stroke="#eccf9f" rx="4"/>
<rect x="40.0" y="774.0" width="4" height="78.0" fill="#e8a33d"/>
<text x="58.0" y="800.0" font-size="12.6" fill="#b97511" text-anchor="start" font-weight="bold">箱体里没有一处是粘的，也没有一处是用螺钉拧的。</text>
<text x="58.0" y="820.0" font-size="11.5" fill="#555" text-anchor="start">顶盖直接盖上，扩散板和胶片夹只是放在那里；整个箱子里唯一的紧固件是 3 根 M6 螺杆和 6 颗螺母。全套装配中</text>
<text x="58.0" y="836.0" font-size="11.5" fill="#555" text-anchor="start">唯一用到的胶，是每颗磁铁和每片铁垫片下面的一滴快干胶。</text>
<text x="40.0" y="866.0" font-size="11" fill="#777" text-anchor="start">全部尺寸取自 cad/neobox.blend。装配顺序、结合方式与固定方法与 docs/assembly.zh-CN.md 一致。图中画的是 135 夹，120 夹外形同为 110 × 170。抽拉面板（200 × 78 × 16）盖住前壁上 190 × 76 的开口——这道前壁已被本剖切</text>
<text x="40.0" y="884.0" font-size="11" fill="#777" text-anchor="start">去掉，因此两者都没有画出；见 manufacturing-overview.svg。</text>
</svg>