<svg xmlns="http://www.w3.org/2000/svg" width="960" height="724" viewBox="0 0 960 724">
<rect x="0.0" y="0.0" width="960.0" height="724.0" fill="#ffffff"/>
<text x="24.0" y="40.0" font-family="Helvetica, Arial, sans-serif" font-size="21" fill="#111" text-anchor="start" font-weight="bold">打印朝向</text>
<text x="24.0" y="60.0" font-family="Helvetica, Arial, sans-serif" font-size="12" fill="#444" text-anchor="start">NeoBox v1 — 9 个打印件在打印机床板上的摆放姿态</text>
<rect x="24.0" y="72.0" width="912.0" height="30.0" fill="#fbf0dd" stroke="#e8a33d" stroke-width="1.2" rx="5"/>
<text x="38.0" y="91.0" font-family="Helvetica, Arial, sans-serif" font-size="13" fill="#111" text-anchor="start" font-weight="bold">9 件全部免支撑打印 · 层高一律 0.2 mm · 切勿缩放（单位 mm）</text>
<text x="922.0" y="91.0" font-family="Helvetica, Arial, sans-serif" font-size="12" fill="#444" text-anchor="end">黑 PLA</text>
<circle cx="871.7" cy="87.0" r="5" fill="#3a3a3a" stroke="#444" stroke-width="1"/>
<text x="851.7" y="91.0" font-family="Helvetica, Arial, sans-serif" font-size="12" fill="#444" text-anchor="end">白 PLA</text>
<circle cx="801.4" cy="87.0" r="5" fill="#ffffff" stroke="#444" stroke-width="1"/>
<rect x="24.0" y="116.0" width="293.0" height="182.0" fill="#ffffff" stroke="#cccccc" stroke-width="1" rx="6"/>
<circle cx="42.0" cy="132.0" r="5" fill="#ffffff" stroke="#444" stroke-width="1"/>
<text x="52.0" y="136.0" font-family="SFMono-Regular, Menlo, Consolas, monospace" font-size="12" fill="#111" text-anchor="start">main-body.stl</text>
<rect x="42.0" y="244.0" width="257.0" height="6.0" fill="#d9d9d9" stroke="#444" stroke-width="1"/>
<line x1="89.5" y1="184.0" x2="89.5" y2="233.0" stroke="#e8a33d" stroke-width="2.5"/>
<polygon points="84.5,232.0 94.5,232.0 89.5,242.0" fill="#e8a33d" stroke="none" stroke-width="0" stroke-linejoin="round"/>
<polygon points="107.5,244.0 107.5,153.0 109.0,153.0 109.0,149.0 114.0,149.0 114.0,153.0 115.5,153.0 115.5,235.0 249.5,235.0 249.5,153.0 251.0,153.0 251.0,149.0 256.0,149.0 256.0,153.0 257.5,153.0 257.5,244.0" fill="#f2f2f2" stroke="#444" stroke-width="2" stroke-linejoin="round"/>
<text x="170.5" y="269.0" font-family="Helvetica, Arial, sans-serif" font-size="12" fill="#111" text-anchor="middle">平底朝下，开口朝上</text>
<text x="170.5" y="286.0" font-family="Helvetica, Arial, sans-serif" font-size="12" fill="#111" text-anchor="middle">（缺一面墙是设计特征）</text>
<rect x="333.0" y="116.0" width="293.0" height="182.0" fill="#ffffff" stroke="#cccccc" stroke-width="1" rx="6"/>
<circle cx="351.0" cy="132.0" r="5" fill="#ffffff" stroke="#444" stroke-width="1"/>
<text x="361.0" y="136.0" font-family="SFMono-Regular, Menlo, Consolas, monospace" font-size="12" fill="#111" text-anchor="start">cover-stage.stl</text>
<rect x="351.0" y="244.0" width="257.0" height="6.0" fill="#d9d9d9" stroke="#444" stroke-width="1"/>
<line x1="398.5" y1="184.0" x2="398.5" y2="233.0" stroke="#e8a33d" stroke-width="2.5"/>
<polygon points="393.5,232.0 403.5,232.0 398.5,242.0" fill="#e8a33d" stroke="none" stroke-width="0" stroke-linejoin="round"/>
<polygon points="416.5,244.0 416.5,230.0 430.7,230.0 430.7,221.0 438.7,221.0 438.7,230.0 544.3,230.0 544.3,221.0 552.3,221.0 552.3,230.0 566.5,230.0 566.5,244.0" fill="#f2f2f2" stroke="#444" stroke-width="2" stroke-linejoin="round"/>
<text x="479.5" y="276.0" font-family="Helvetica, Arial, sans-serif" font-size="12" fill="#111" text-anchor="middle">平的大面朝下，方框凸缘朝上</text>
<rect x="642.0" y="116.0" width="293.0" height="182.0" fill="#ffffff" stroke="#cccccc" stroke-width="1" rx="6"/>
<circle cx="660.0" cy="132.0" r="5" fill="#3a3a3a" stroke="#444" stroke-width="1"/>
<text x="670.0" y="136.0" font-family="SFMono-Regular, Menlo, Consolas, monospace" font-size="12" fill="#111" text-anchor="start">film-holder-135-base.stl</text>
<rect x="660.0" y="244.0" width="257.0" height="6.0" fill="#d9d9d9" stroke="#444" stroke-width="1"/>
<line x1="726.1" y1="184.0" x2="726.1" y2="233.0" stroke="#e8a33d" stroke-width="2.5"/>
<polygon points="721.1,232.0 731.1,232.0 726.1,242.0" fill="#e8a33d" stroke="none" stroke-width="0" stroke-linejoin="round"/>
<polygon points="744.1,244.0 744.1,233.0 758.8,233.0 758.8,227.0 764.8,227.0 764.8,233.0 775.6,233.0 775.6,229.0 780.6,229.0 780.6,233.0 820.4,233.0 820.4,229.0 825.4,229.0 825.4,233.0 836.2,233.0 836.2,227.0 842.2,227.0 842.2,233.0 856.9,233.0 856.9,244.0" fill="#3a3a3a" stroke="#444" stroke-width="2" stroke-linejoin="round"/>
<text x="788.5" y="276.0" font-family="Helvetica, Arial, sans-serif" font-size="12" fill="#111" text-anchor="middle">平面朝下，长条凸轨朝上</text>
<rect x="24.0" y="312.0" width="293.0" height="182.0" fill="#ffffff" stroke="#e8a33d" stroke-width="2" rx="6"/>
<circle cx="42.0" cy="328.0" r="5" fill="#3a3a3a" stroke="#444" stroke-width="1"/>
<text x="52.0" y="332.0" font-family="SFMono-Regular, Menlo, Consolas, monospace" font-size="12" fill="#111" text-anchor="start">film-holder-135-lid.stl</text>
<circle cx="295.0" cy="332.0" r="10" fill="#e8a33d"/>
<text x="295.0" y="337.0" font-family="Helvetica, Arial, sans-serif" font-size="14" fill="#ffffff" text-anchor="middle" font-weight="bold">!</text>
<rect x="42.0" y="440.0" width="257.0" height="6.0" fill="#d9d9d9" stroke="#444" stroke-width="1"/>
<line x1="108.1" y1="380.0" x2="108.1" y2="429.0" stroke="#e8a33d" stroke-width="2.5"/>
<polygon points="103.1,428.0 113.1,428.0 108.1,438.0" fill="#e8a33d" stroke="none" stroke-width="0" stroke-linejoin="round"/>
<polygon points="126.1,440.0 126.1,427.0 143.6,427.0 143.6,434.0 221.4,434.0 221.4,427.0 238.9,427.0 238.9,440.0" fill="#3a3a3a" stroke="#444" stroke-width="2" stroke-linejoin="round"/>
<text x="170.5" y="465.0" font-family="Helvetica, Arial, sans-serif" font-size="12" fill="#111" text-anchor="middle" font-weight="bold">光滑大平面朝下，</text>
<text x="170.5" y="482.0" font-family="Helvetica, Arial, sans-serif" font-size="12" fill="#111" text-anchor="middle" font-weight="bold">浅方坑的面朝上</text>
<rect x="333.0" y="312.0" width="293.0" height="182.0" fill="#ffffff" stroke="#cccccc" stroke-width="1" rx="6"/>
<circle cx="351.0" cy="328.0" r="5" fill="#3a3a3a" stroke="#444" stroke-width="1"/>
<text x="361.0" y="332.0" font-family="SFMono-Regular, Menlo, Consolas, monospace" font-size="12" fill="#111" text-anchor="start">film-holder-120-base.stl</text>
<rect x="351.0" y="440.0" width="257.0" height="6.0" fill="#d9d9d9" stroke="#444" stroke-width="1"/>
<line x1="417.1" y1="380.0" x2="417.1" y2="429.0" stroke="#e8a33d" stroke-width="2.5"/>
<polygon points="412.1,428.0 422.1,428.0 417.1,438.0" fill="#e8a33d" stroke="none" stroke-width="0" stroke-linejoin="round"/>
<polygon points="435.1,440.0 435.1,429.0 449.8,429.0 449.8,423.0 455.8,423.0 455.8,429.0 466.6,429.0 466.6,425.0 471.6,425.0 471.6,429.0 511.4,429.0 511.4,425.0 516.4,425.0 516.4,429.0 527.2,429.0 527.2,423.0 533.2,423.0 533.2,429.0 547.9,429.0 547.9,440.0" fill="#3a3a3a" stroke="#444" stroke-width="2" stroke-linejoin="round"/>
<text x="479.5" y="472.0" font-family="Helvetica, Arial, sans-serif" font-size="12" fill="#111" text-anchor="middle">平面朝下，长条凸轨朝上</text>
<rect x="642.0" y="312.0" width="293.0" height="182.0" fill="#ffffff" stroke="#e8a33d" stroke-width="2" rx="6"/>
<circle cx="660.0" cy="328.0" r="5" fill="#3a3a3a" stroke="#444" stroke-width="1"/>
<text x="670.0" y="332.0" font-family="SFMono-Regular, Menlo, Consolas, monospace" font-size="12" fill="#111" text-anchor="start">film-holder-120-lid.stl</text>
<circle cx="913.0" cy="332.0" r="10" fill="#e8a33d"/>
<text x="913.0" y="337.0" font-family="Helvetica, Arial, sans-serif" font-size="14" fill="#ffffff" text-anchor="middle" font-weight="bold">!</text>
<rect x="660.0" y="440.0" width="257.0" height="6.0" fill="#d9d9d9" stroke="#444" stroke-width="1"/>
<line x1="726.1" y1="380.0" x2="726.1" y2="429.0" stroke="#e8a33d" stroke-width="2.5"/>
<polygon points="721.1,428.0 731.1,428.0 726.1,438.0" fill="#e8a33d" stroke="none" stroke-width="0" stroke-linejoin="round"/>
<polygon points="744.1,440.0 744.1,427.0 761.6,427.0 761.6,434.0 839.4,434.0 839.4,427.0 856.9,427.0 856.9,440.0" fill="#3a3a3a" stroke="#444" stroke-width="2" stroke-linejoin="round"/>
<text x="788.5" y="465.0" font-family="Helvetica, Arial, sans-serif" font-size="12" fill="#111" text-anchor="middle" font-weight="bold">光滑大平面朝下，</text>
<text x="788.5" y="482.0" font-family="Helvetica, Arial, sans-serif" font-size="12" fill="#111" text-anchor="middle" font-weight="bold">浅方坑的面朝上</text>
<rect x="24.0" y="508.0" width="293.0" height="182.0" fill="#ffffff" stroke="#cccccc" stroke-width="1" rx="6"/>
<circle cx="42.0" cy="524.0" r="5" fill="#3a3a3a" stroke="#444" stroke-width="1"/>
<text x="52.0" y="528.0" font-family="SFMono-Regular, Menlo, Consolas, monospace" font-size="12" fill="#111" text-anchor="start">pressure-window-135.stl</text>
<rect x="42.0" y="636.0" width="257.0" height="6.0" fill="#d9d9d9" stroke="#444" stroke-width="1"/>
<line x1="126.1" y1="576.0" x2="126.1" y2="625.0" stroke="#e8a33d" stroke-width="2.5"/>
<polygon points="121.1,624.0 131.1,624.0 126.1,634.0" fill="#e8a33d" stroke="none" stroke-width="0" stroke-linejoin="round"/>
<rect x="144.1" y="629.0" width="76.8" height="7.0" fill="#3a3a3a" stroke="#444" stroke-width="2"/>
<text x="170.5" y="668.0" font-family="Helvetica, Arial, sans-serif" font-size="12" fill="#111" text-anchor="middle">平放（薄片）</text>
<rect x="333.0" y="508.0" width="293.0" height="182.0" fill="#ffffff" stroke="#cccccc" stroke-width="1" rx="6"/>
<circle cx="351.0" cy="524.0" r="5" fill="#3a3a3a" stroke="#444" stroke-width="1"/>
<text x="361.0" y="528.0" font-family="SFMono-Regular, Menlo, Consolas, monospace" font-size="12" fill="#111" text-anchor="start">pressure-window-120.stl</text>
<rect x="351.0" y="636.0" width="257.0" height="6.0" fill="#d9d9d9" stroke="#444" stroke-width="1"/>
<line x1="435.1" y1="576.0" x2="435.1" y2="625.0" stroke="#e8a33d" stroke-width="2.5"/>
<polygon points="430.1,624.0 440.1,624.0 435.1,634.0" fill="#e8a33d" stroke="none" stroke-width="0" stroke-linejoin="round"/>
<rect x="453.1" y="629.0" width="76.8" height="7.0" fill="#3a3a3a" stroke="#444" stroke-width="2"/>
<text x="479.5" y="668.0" font-family="Helvetica, Arial, sans-serif" font-size="12" fill="#111" text-anchor="middle">平放（薄片）</text>
<rect x="642.0" y="508.0" width="293.0" height="182.0" fill="#ffffff" stroke="#cccccc" stroke-width="1" rx="6"/>
<circle cx="660.0" cy="524.0" r="5" fill="#3a3a3a" stroke="#444" stroke-width="1"/>
<text x="670.0" y="528.0" font-family="SFMono-Regular, Menlo, Consolas, monospace" font-size="12" fill="#111" text-anchor="start">mask-6x6.stl</text>
<rect x="660.0" y="636.0" width="257.0" height="6.0" fill="#d9d9d9" stroke="#444" stroke-width="1"/>
<line x1="726.1" y1="576.0" x2="726.1" y2="625.0" stroke="#e8a33d" stroke-width="2.5"/>
<polygon points="721.1,624.0 731.1,624.0 726.1,634.0" fill="#e8a33d" stroke="none" stroke-width="0" stroke-linejoin="round"/>
<rect x="744.1" y="631.0" width="112.8" height="5.0" fill="#3a3a3a" stroke="#444" stroke-width="2"/>
<text x="788.5" y="668.0" font-family="Helvetica, Arial, sans-serif" font-size="12" fill="#111" text-anchor="middle">平放（薄片）</text>
<text x="936.0" y="714.0" font-family="Helvetica, Arial, sans-serif" font-size="12" fill="#444" text-anchor="end">NeoBox v1 — 2026-08</text>
</svg>
