0
SECTION
2
ENTITIES
0
LINE
8
CUT
10
0
20
0
11
200
21
0
0
LINE
8
CUT
10
200
20
0
11
200
21
230
0
LINE
8
CUT
10
200
20
230
11
0
21
230
0
LINE
8
CUT
10
0
20
230
11
0
21
0
0
LINE
8
CUT
10
50
20
55
11
150
21
55
0
LINE
8
CUT
10
150
20
55
11
150
21
175
0
LINE
8
CUT
10
150
20
175
11
50
21
175
0
LINE
8
CUT
10
50
20
175
11
50
21
55
0
CIRCLE
8
CUT
10
145
20
15
40
3.25
0
CIRCLE
8
CUT
10
30
20
180
40
3.25
0
CIRCLE
8
CUT
10
170
20
180
40
3.25
0
TEXT
8
NOTE
10
5
20
5
40
8
1
P12 JIAOPIANTAI 200x230 KOU 100x120
0
TEXT
8
NOTE
10
5
20
240
40
8
1
3x D6.5 CLEARANCE HOLE - NO TAP / AL5052 t3 / BLACK ANODIZE / UNIT=MM 1:1
0
ENDSEC
0
EOF
