0
SECTION
2
ENTITIES
0
LINE
8
CUT
10
20
20
20
11
22.5
21
20
0
LINE
8
CUT
10
22.5
20
20
11
22.5
21
29
0
LINE
8
CUT
10
22.5
20
29
11
32.5
21
29
0
LINE
8
CUT
10
32.5
20
29
11
32.5
21
20
0
LINE
8
CUT
10
32.5
20
20
11
227.5
21
20
0
LINE
8
CUT
10
227.5
20
20
11
227.5
21
29
0
LINE
8
CUT
10
227.5
20
29
11
237.5
21
29
0
LINE
8
CUT
10
237.5
20
29
11
237.5
21
20
0
LINE
8
CUT
10
237.5
20
20
11
240
21
20
0
LINE
8
CUT
10
240
20
20
11
240
21
77.5
0
LINE
8
CUT
10
240
20
77.5
11
231
21
77.5
0
LINE
8
CUT
10
231
20
77.5
11
231
21
107.5
0
LINE
8
CUT
10
231
20
107.5
11
240
21
107.5
0
LINE
8
CUT
10
240
20
107.5
11
240
21
217.5
0
LINE
8
CUT
10
240
20
217.5
11
231
21
217.5
0
LINE
8
CUT
10
231
20
217.5
11
231
21
247.5
0
LINE
8
CUT
10
231
20
247.5
11
240
21
247.5
0
LINE
8
CUT
10
240
20
247.5
11
240
21
305
0
LINE
8
CUT
10
240
20
305
11
200
21
305
0
LINE
8
CUT
10
200
20
305
11
200
21
296
0
LINE
8
CUT
10
200
20
296
11
170
21
296
0
LINE
8
CUT
10
170
20
296
11
170
21
305
0
LINE
8
CUT
10
170
20
305
11
90
21
305
0
LINE
8
CUT
10
90
20
305
11
90
21
296
0
LINE
8
CUT
10
90
20
296
11
60
21
296
0
LINE
8
CUT
10
60
20
296
11
60
21
305
0
LINE
8
CUT
10
60
20
305
11
20
21
305
0
LINE
8
CUT
10
20
20
305
11
20
21
247.5
0
LINE
8
CUT
10
20
20
247.5
11
29
21
247.5
0
LINE
8
CUT
10
29
20
247.5
11
29
21
217.5
0
LINE
8
CUT
10
29
20
217.5
11
20
21
217.5
0
LINE
8
CUT
10
20
20
217.5
11
20
21
107.5
0
LINE
8
CUT
10
20
20
107.5
11
29
21
107.5
0
LINE
8
CUT
10
29
20
107.5
11
29
21
77.5
0
LINE
8
CUT
10
29
20
77.5
11
20
21
77.5
0
LINE
8
CUT
10
20
20
77.5
11
20
21
20
0
TEXT
8
NOTE
10
30
20
30
40
8
1
P1 DIBAN 220x285 + SLOTS
0
LINE
8
CUT
10
280
20
20
11
500
21
20
0
LINE
8
CUT
10
500
20
20
11
500
21
305
0
LINE
8
CUT
10
500
20
305
11
280
21
305
0
LINE
8
CUT
10
280
20
305
11
280
21
20
0
LINE
8
CUT
10
340
20
102.5
11
440
21
102.5
0
LINE
8
CUT
10
440
20
102.5
11
440
21
222.5
0
LINE
8
CUT
10
440
20
222.5
11
340
21
222.5
0
LINE
8
CUT
10
340
20
222.5
11
340
21
102.5
0
CIRCLE
8
CUT
10
390
20
62.5
40
4.5
0
CIRCLE
8
CUT
10
320
20
227.5
40
4.5
0
CIRCLE
8
CUT
10
460
20
227.5
40
4.5
0
CIRCLE
8
CUT
10
284.5
20
92.5
40
1.5
0
CIRCLE
8
CUT
10
284.5
20
232.5
40
1.5
0
CIRCLE
8
CUT
10
495.5
20
92.5
40
1.5
0
CIRCLE
8
CUT
10
495.5
20
232.5
40
1.5
0
CIRCLE
8
CUT
10
390
20
24.5
40
1.5
0
CIRCLE
8
CUT
10
390
20
300.5
40
1.5
0
TEXT
8
NOTE
10
290
20
30
40
8
1
P2 DINGBAN 220x285 KOU100x120 3xD9 6xD3
0
LINE
8
CUT
10
540
20
20
11
738
21
20
0
LINE
8
CUT
10
738
20
20
11
738
21
283
0
LINE
8
CUT
10
738
20
283
11
540
21
283
0
LINE
8
CUT
10
540
20
283
11
540
21
20
0
TEXT
8
NOTE
10
550
20
30
40
8
1
P7 TUOPAN 198x263
0
LINE
8
CUT
10
760
20
20
11
980
21
20
0
LINE
8
CUT
10
980
20
20
11
980
21
30
0
LINE
8
CUT
10
980
20
30
11
760
21
30
0
LINE
8
CUT
10
760
20
30
11
760
21
20
0
TEXT
8
NOTE
10
762
20
33
40
6
1
P6a QIANLIANG 220x10
0
LINE
8
CUT
10
760
20
69
11
762.5
21
69
0
LINE
8
CUT
10
762.5
20
69
11
762.5
21
60
0
LINE
8
CUT
10
762.5
20
60
11
772.5
21
60
0
LINE
8
CUT
10
772.5
20
60
11
772.5
21
69
0
LINE
8
CUT
10
772.5
20
69
11
775
21
69
0
LINE
8
CUT
10
775
20
69
11
775
21
154
0
LINE
8
CUT
10
775
20
154
11
760
21
154
0
LINE
8
CUT
10
760
20
154
11
760
21
69
0
TEXT
8
NOTE
10
756
20
160
40
6
1
P6b JIAO
0
LINE
8
CUT
10
790
20
69
11
792.5
21
69
0
LINE
8
CUT
10
792.5
20
69
11
792.5
21
60
0
LINE
8
CUT
10
792.5
20
60
11
802.5
21
60
0
LINE
8
CUT
10
802.5
20
60
11
802.5
21
69
0
LINE
8
CUT
10
802.5
20
69
11
805
21
69
0
LINE
8
CUT
10
805
20
69
11
805
21
154
0
LINE
8
CUT
10
805
20
154
11
790
21
154
0
LINE
8
CUT
10
790
20
154
11
790
21
69
0
TEXT
8
NOTE
10
786
20
160
40
6
1
P6c JIAO
0
LINE
8
CUT
10
760
20
200
11
936
21
200
0
LINE
8
CUT
10
936
20
200
11
936
21
282
0
LINE
8
CUT
10
936
20
282
11
760
21
282
0
LINE
8
CUT
10
760
20
282
11
760
21
200
0
TEXT
8
NOTE
10
770
20
210
40
8
1
P8 CHOUBAN 176x82
0
LINE
8
CUT
10
20
20
354
11
68.5
21
354
0
LINE
8
CUT
10
68.5
20
354
11
68.5
21
345
0
LINE
8
CUT
10
68.5
20
345
11
98.5
21
345
0
LINE
8
CUT
10
98.5
20
345
11
98.5
21
354
0
LINE
8
CUT
10
98.5
20
354
11
208.5
21
354
0
LINE
8
CUT
10
208.5
20
354
11
208.5
21
345
0
LINE
8
CUT
10
208.5
20
345
11
238.5
21
345
0
LINE
8
CUT
10
238.5
20
345
11
238.5
21
354
0
LINE
8
CUT
10
238.5
20
354
11
287
21
354
0
LINE
8
CUT
10
287
20
354
11
287
21
367.5
0
LINE
8
CUT
10
287
20
367.5
11
296
21
367.5
0
LINE
8
CUT
10
296
20
367.5
11
296
21
392.5
0
LINE
8
CUT
10
296
20
392.5
11
287
21
392.5
0
LINE
8
CUT
10
287
20
392.5
11
287
21
407.5
0
LINE
8
CUT
10
287
20
407.5
11
296
21
407.5
0
LINE
8
CUT
10
296
20
407.5
11
296
21
432.5
0
LINE
8
CUT
10
296
20
432.5
11
287
21
432.5
0
LINE
8
CUT
10
287
20
432.5
11
287
21
449
0
LINE
8
CUT
10
287
20
449
11
20
21
449
0
LINE
8
CUT
10
20
20
449
11
20
21
354
0
TEXT
8
NOTE
10
30
20
364
40
8
1
P3 CEBAN-A 267x95 TABS
0
LINE
8
CUT
10
340
20
354
11
388.5
21
354
0
LINE
8
CUT
10
388.5
20
354
11
388.5
21
345
0
LINE
8
CUT
10
388.5
20
345
11
418.5
21
345
0
LINE
8
CUT
10
418.5
20
345
11
418.5
21
354
0
LINE
8
CUT
10
418.5
20
354
11
528.5
21
354
0
LINE
8
CUT
10
528.5
20
354
11
528.5
21
345
0
LINE
8
CUT
10
528.5
20
345
11
558.5
21
345
0
LINE
8
CUT
10
558.5
20
345
11
558.5
21
354
0
LINE
8
CUT
10
558.5
20
354
11
607
21
354
0
LINE
8
CUT
10
607
20
354
11
607
21
367.5
0
LINE
8
CUT
10
607
20
367.5
11
616
21
367.5
0
LINE
8
CUT
10
616
20
367.5
11
616
21
392.5
0
LINE
8
CUT
10
616
20
392.5
11
607
21
392.5
0
LINE
8
CUT
10
607
20
392.5
11
607
21
407.5
0
LINE
8
CUT
10
607
20
407.5
11
616
21
407.5
0
LINE
8
CUT
10
616
20
407.5
11
616
21
432.5
0
LINE
8
CUT
10
616
20
432.5
11
607
21
432.5
0
LINE
8
CUT
10
607
20
432.5
11
607
21
449
0
LINE
8
CUT
10
607
20
449
11
340
21
449
0
LINE
8
CUT
10
340
20
449
11
340
21
354
0
CIRCLE
8
CUT
10
380
20
384
40
6
0
TEXT
8
NOTE
10
350
20
364
40
8
1
P4 CEBAN-B 267x95 TABS + D12
0
LINE
8
CUT
10
670
20
354
11
710
21
354
0
LINE
8
CUT
10
710
20
354
11
710
21
345
0
LINE
8
CUT
10
710
20
345
11
740
21
345
0
LINE
8
CUT
10
740
20
345
11
740
21
354
0
LINE
8
CUT
10
740
20
354
11
820
21
354
0
LINE
8
CUT
10
820
20
354
11
820
21
345
0
LINE
8
CUT
10
820
20
345
11
850
21
345
0
LINE
8
CUT
10
850
20
345
11
850
21
354
0
LINE
8
CUT
10
850
20
354
11
890
21
354
0
LINE
8
CUT
10
890
20
354
11
890
21
367.5
0
LINE
8
CUT
10
890
20
367.5
11
881
21
367.5
0
LINE
8
CUT
10
881
20
367.5
11
881
21
392.5
0
LINE
8
CUT
10
881
20
392.5
11
890
21
392.5
0
LINE
8
CUT
10
890
20
392.5
11
890
21
407.5
0
LINE
8
CUT
10
890
20
407.5
11
881
21
407.5
0
LINE
8
CUT
10
881
20
407.5
11
881
21
432.5
0
LINE
8
CUT
10
881
20
432.5
11
890
21
432.5
0
LINE
8
CUT
10
890
20
432.5
11
890
21
449
0
LINE
8
CUT
10
890
20
449
11
670
21
449
0
LINE
8
CUT
10
670
20
449
11
670
21
432.5
0
LINE
8
CUT
10
670
20
432.5
11
679
21
432.5
0
LINE
8
CUT
10
679
20
432.5
11
679
21
407.5
0
LINE
8
CUT
10
679
20
407.5
11
670
21
407.5
0
LINE
8
CUT
10
670
20
407.5
11
670
21
392.5
0
LINE
8
CUT
10
670
20
392.5
11
679
21
392.5
0
LINE
8
CUT
10
679
20
392.5
11
679
21
367.5
0
LINE
8
CUT
10
679
20
367.5
11
670
21
367.5
0
LINE
8
CUT
10
670
20
367.5
11
670
21
354
0
TEXT
8
NOTE
10
680
20
364
40
8
1
P5 HOUBAN 220x95 TABS+NOTCH
0
TEXT
8
NOTE
10
20
20
470
40
10
1
NeoBox 9mm PLYWOOD TAB-SLOT v4 / UNIT=MM 1:1 / CUT layer cut, NOTE no cut / kerf comp 0.1mm optional
0
ENDSEC
0
EOF
