0
SECTION
2
ENTITIES
0
LINE
8
CUT
10
0
20
0
11
140
21
0
0
LINE
8
CUT
10
140
20
0
11
140
21
80
0
LINE
8
CUT
10
140
20
80
11
0
21
80
0
LINE
8
CUT
10
0
20
80
11
0
21
0
0
TEXT
8
NOTE
10
5
20
5
40
8
1
P9 XIEBAN 140x80
0
LINE
8
CUT
10
155
20
0
11
295
21
0
0
LINE
8
CUT
10
295
20
0
11
295
21
70
0
LINE
8
CUT
10
295
20
70
11
155
21
70
0
LINE
8
CUT
10
155
20
70
11
155
21
0
0
TEXT
8
NOTE
10
160
20
5
40
8
1
P10 DANGBAN 140x70
0
TEXT
8
NOTE
10
0
20
95
40
10
1
NeoBox 5.5mm BOARD x1 SET / UNIT=MM 1:1
0
ENDSEC
0
EOF
